<?xml version="1.0" encoding="utf-8"?>
<!-- Generator: Adobe Illustrator 22.1.0, SVG Export Plug-In . SVG Version: 6.00 Build 0)  -->
<svg version="1.1" id="レイヤー_1" xmlns="http://www.w3.org/2000/svg" xmlns:xlink="http://www.w3.org/1999/xlink" x="0px"
	 y="0px" viewBox="0 0 337 48" style="enable-background:new 0 0 337 48;" xml:space="preserve">
<style type="text/css">
	.st0{fill:url(#SVGID_1_);}
	.st1{fill:#C3AF97;}
	.st2{fill:url(#SVGID_2_);}
	.st3{fill:url(#SVGID_3_);}
	.st4{fill:url(#SVGID_4_);}
	.st5{fill:url(#SVGID_5_);}
</style>
<g>
	<linearGradient id="SVGID_1_" gradientUnits="userSpaceOnUse" x1="168" y1="6.1972" x2="168" y2="31.6736">
		<stop  offset="0" style="stop-color:#C1996B"/>
		<stop  offset="1" style="stop-color:#A17A51"/>
	</linearGradient>
	<path class="st0" d="M336,22c0,12.2-8.8,22-19.8,22H19.8C8.8,44,0,34.2,0,22l0,0C0,9.8,8.8,0,19.8,0h296.5C327.2,0,336,9.8,336,22
		L336,22z"/>
	<g>
		<g>
			<path class="st1" d="M136,48.5c-6.6,0-11.5-9.2-11.5-21.5S129.4,5.5,136,5.5c6.6,0,11.5,9.2,11.5,21.5S142.5,48.5,136,48.5z
				 M136,10.5c-2.7,0-6.5,6.4-6.5,16.5s3.8,16.5,6.5,16.5c2.7,0,6.5-6.4,6.5-16.5S138.6,10.5,136,10.5z"/>
		</g>
	</g>
	<g>
		<g>
			<path class="st1" d="M205.7,48.5c-6.6,0-11.5-9.2-11.5-21.5s4.9-21.5,11.5-21.5c6.6,0,11.5,9.2,11.5,21.5S212.3,48.5,205.7,48.5z
				 M205.7,10.5c-2.7,0-6.5,6.4-6.5,16.5s3.8,16.5,6.5,16.5c2.7,0,6.5-6.4,6.5-16.5S208.4,10.5,205.7,10.5z"/>
		</g>
	</g>
	<g>
		<g>
			<path class="st1" d="M275.7,48.5c-6.6,0-11.5-9.2-11.5-21.5s4.9-21.5,11.5-21.5c6.6,0,11.5,9.2,11.5,21.5S282.3,48.5,275.7,48.5z
				 M275.7,10.5c-2.7,0-6.5,6.4-6.5,16.5s3.8,16.5,6.5,16.5s6.5-6.4,6.5-16.5S278.4,10.5,275.7,10.5z"/>
		</g>
	</g>
	<g>
		<g>
			<g>
				<path class="st1" d="M65.5,48.5C59,48.5,54,39.3,54,27S59,5.5,65.5,5.5C72.1,5.5,77,14.7,77,27S72.1,48.5,65.5,48.5z M65.5,10.5
					c-2.7,0-6.5,6.4-6.5,16.5s3.8,16.5,6.5,16.5c2.7,0,6.5-6.4,6.5-16.5S68.2,10.5,65.5,10.5z"/>
			</g>
		</g>
	</g>
	<g>
		<radialGradient id="SVGID_2_" cx="65.8569" cy="17.8841" r="9.857" gradientUnits="userSpaceOnUse">
			<stop  offset="0" style="stop-color:#C1996B"/>
			<stop  offset="0.9758" style="stop-color:#A17A51"/>
		</radialGradient>
		<path class="st2" d="M75.7,17.9c0-5.4-4.4-9.9-9.9-9.9c-5.4,0-9.9,4.4-9.9,9.9c0,5.4,4.4,9.9,9.9,9.9
			C71.3,27.7,75.7,23.3,75.7,17.9z"/>
		<radialGradient id="SVGID_3_" cx="135.9521" cy="17.8841" r="9.8573" gradientUnits="userSpaceOnUse">
			<stop  offset="0" style="stop-color:#C1996B"/>
			<stop  offset="0.9758" style="stop-color:#A17A51"/>
		</radialGradient>
		<path class="st3" d="M145.8,17.9c0-5.4-4.4-9.9-9.9-9.9c-5.4,0-9.9,4.4-9.9,9.9c0,5.4,4.4,9.9,9.9,9.9
			C141.4,27.7,145.8,23.3,145.8,17.9z"/>
		<radialGradient id="SVGID_4_" cx="206.0479" cy="17.6784" r="9.8573" gradientUnits="userSpaceOnUse">
			<stop  offset="0" style="stop-color:#C1996B"/>
			<stop  offset="0.9758" style="stop-color:#A17A51"/>
		</radialGradient>
		<path class="st4" d="M215.9,17.7c0-5.4-4.4-9.9-9.9-9.9c-5.4,0-9.9,4.4-9.9,9.9c0,5.4,4.4,9.9,9.9,9.9
			C211.5,27.5,215.9,23.1,215.9,17.7z"/>
		<radialGradient id="SVGID_5_" cx="276.143" cy="17.8841" r="9.857" gradientUnits="userSpaceOnUse">
			<stop  offset="0" style="stop-color:#C1996B"/>
			<stop  offset="0.9758" style="stop-color:#A17A51"/>
		</radialGradient>
		<path class="st5" d="M286,17.9c0-5.4-4.4-9.9-9.9-9.9c-5.4,0-9.9,4.4-9.9,9.9c0,5.4,4.4,9.9,9.9,9.9C281.6,27.7,286,23.3,286,17.9
			z"/>
	</g>
</g>
</svg>
