<?xml version="1.0" encoding="utf-8"?>
<!-- Generator: Adobe Illustrator 22.1.0, SVG Export Plug-In . SVG Version: 6.00 Build 0)  -->
<svg version="1.1" id="レイヤー_1" xmlns="http://www.w3.org/2000/svg" xmlns:xlink="http://www.w3.org/1999/xlink" x="0px"
	 y="0px" viewBox="0 0 1600 1200" style="enable-background:new 0 0 1600 1200;" xml:space="preserve">
<style type="text/css">
	.st0{fill:url(#SVGID_1_);}
	.st1{fill:url(#SVGID_2_);}
	.st2{fill:url(#SVGID_3_);}
	.st3{fill:url(#SVGID_4_);}
	.st4{fill:url(#SVGID_5_);}
	.st5{fill:url(#SVGID_6_);}
	.st6{fill:url(#SVGID_7_);}
	.st7{fill:url(#SVGID_8_);}
	.st8{fill:url(#SVGID_9_);}
	.st9{fill:url(#SVGID_10_);}
	.st10{fill:url(#SVGID_11_);}
	.st11{fill:url(#SVGID_12_);}
	.st12{fill:url(#SVGID_13_);}
	.st13{fill:url(#SVGID_14_);}
	.st14{fill:url(#SVGID_15_);}
	.st15{fill:url(#SVGID_16_);}
	.st16{fill:url(#SVGID_17_);}
	.st17{fill:url(#SVGID_18_);}
	.st18{fill:url(#SVGID_19_);}
	.st19{fill:#006536;}
	.st20{fill:#078B43;}
	.st21{fill:url(#SVGID_20_);}
	.st22{fill:url(#SVGID_21_);}
	.st23{fill:#C3AF97;}
	.st24{fill:url(#SVGID_22_);}
	.st25{fill:url(#SVGID_23_);}
	.st26{fill:url(#SVGID_24_);}
	.st27{fill:url(#SVGID_25_);}
	.st28{fill:url(#SVGID_26_);}
	.st29{fill:url(#SVGID_27_);}
	.st30{fill:url(#SVGID_28_);}
	.st31{fill:url(#SVGID_29_);}
	.st32{fill:url(#SVGID_30_);}
	.st33{fill:url(#SVGID_31_);}
	.st34{fill:url(#SVGID_32_);}
	.st35{fill:url(#SVGID_33_);}
	.st36{fill:url(#SVGID_34_);}
	.st37{fill:url(#SVGID_35_);}
	.st38{fill:url(#SVGID_36_);}
	.st39{fill:url(#SVGID_37_);}
	.st40{fill:url(#SVGID_38_);}
	.st41{fill:url(#SVGID_39_);}
	.st42{fill:url(#SVGID_40_);}
	.st43{fill:url(#SVGID_41_);}
	.st44{fill:url(#SVGID_42_);}
	.st45{fill:url(#SVGID_43_);}
	.st46{fill:url(#SVGID_44_);}
	.st47{fill:url(#SVGID_45_);}
	.st48{fill:url(#SVGID_46_);}
	.st49{fill:url(#SVGID_47_);}
	.st50{fill:url(#SVGID_48_);}
	.st51{fill:url(#SVGID_49_);}
	.st52{fill:url(#SVGID_50_);}
	.st53{fill:url(#SVGID_51_);}
	.st54{fill:url(#SVGID_52_);}
	.st55{fill:#FFFFFF;}
	.st56{fill:url(#SVGID_53_);}
	.st57{fill:url(#SVGID_54_);}
	.st58{fill:url(#SVGID_55_);}
	.st59{fill:url(#SVGID_56_);}
	.st60{fill:url(#SVGID_57_);}
	.st61{fill:url(#SVGID_58_);}
	.st62{fill:url(#SVGID_59_);}
	.st63{fill:url(#SVGID_60_);}
	.st64{fill:url(#SVGID_61_);}
	.st65{fill:url(#SVGID_62_);}
	.st66{fill:url(#SVGID_63_);}
	.st67{fill:url(#SVGID_64_);}
	.st68{fill:url(#SVGID_65_);}
	.st69{fill:url(#SVGID_66_);}
	.st70{fill:url(#SVGID_67_);}
	.st71{fill:url(#SVGID_68_);}
	.st72{fill:url(#SVGID_69_);}
	.st73{fill:url(#SVGID_70_);}
	.st74{fill:url(#SVGID_71_);}
	.st75{fill:url(#SVGID_72_);}
	.st76{fill:url(#SVGID_73_);}
	.st77{fill:url(#SVGID_74_);}
	.st78{fill:url(#SVGID_75_);}
	.st79{fill:url(#SVGID_76_);}
	.st80{fill:url(#SVGID_77_);}
	.st81{fill:url(#SVGID_78_);}
	.st82{fill:url(#SVGID_79_);}
	.st83{fill:#726356;}
	.st84{fill:url(#SVGID_80_);}
	.st85{fill:url(#SVGID_81_);}
	.st86{fill:url(#SVGID_82_);}
	.st87{fill:url(#SVGID_83_);}
	.st88{fill:url(#SVGID_84_);}
	.st89{fill:url(#SVGID_85_);}
	.st90{fill:url(#SVGID_86_);}
</style>
<g>
	<linearGradient id="SVGID_1_" gradientUnits="userSpaceOnUse" x1="640" y1="571.7598" x2="640" y2="753.772">
		<stop  offset="0" style="stop-color:#B7282C"/>
		<stop  offset="1" style="stop-color:#7A2B59"/>
	</linearGradient>
	<rect x="44" y="619" class="st0" width="1192" height="453"/>
	<linearGradient id="SVGID_2_" gradientUnits="userSpaceOnUse" x1="239.5" y1="634.0074" x2="239.5" y2="680.2136">
		<stop  offset="0" style="stop-color:#078B43"/>
		<stop  offset="1" style="stop-color:#E65959"/>
	</linearGradient>
	<rect x="43" y="646" class="st1" width="393" height="115"/>
	<linearGradient id="SVGID_3_" gradientUnits="userSpaceOnUse" x1="239.5" y1="759.8604" x2="239.5" y2="810.4863">
		<stop  offset="0" style="stop-color:#078B43"/>
		<stop  offset="1" style="stop-color:#E65959"/>
	</linearGradient>
	<rect x="43" y="773" class="st2" width="393" height="126"/>
	<linearGradient id="SVGID_4_" gradientUnits="userSpaceOnUse" x1="239.5" y1="894.2104" x2="239.5" y2="958.8991">
		<stop  offset="0" style="stop-color:#078B43"/>
		<stop  offset="1" style="stop-color:#E65959"/>
	</linearGradient>
	<rect x="43" y="911" class="st3" width="393" height="161"/>
	<linearGradient id="SVGID_5_" gradientUnits="userSpaceOnUse" x1="618.5" y1="596.9498" x2="618.5" y2="770.5243">
		<stop  offset="0" style="stop-color:#B7282C"/>
		<stop  offset="1" style="stop-color:#E65959"/>
	</linearGradient>
	<rect x="449" y="642" class="st4" width="339" height="432"/>
	<linearGradient id="SVGID_6_" gradientUnits="userSpaceOnUse" x1="967.5" y1="596.9498" x2="967.5" y2="770.5243">
		<stop  offset="0" style="stop-color:#B7282C"/>
		<stop  offset="1" style="stop-color:#E65959"/>
	</linearGradient>
	<rect x="798" y="642" class="st5" width="339" height="432"/>
	<linearGradient id="SVGID_7_" gradientUnits="userSpaceOnUse" x1="240" y1="641.4972" x2="240" y2="651.1403">
		<stop  offset="0" style="stop-color:#F1F1F1"/>
		<stop  offset="1" style="stop-color:#CBCBCB"/>
	</linearGradient>
	<rect x="43" y="644" class="st6" width="394" height="24"/>
	<linearGradient id="SVGID_8_" gradientUnits="userSpaceOnUse" x1="240" y1="765.6015" x2="240" y2="774.8427">
		<stop  offset="0" style="stop-color:#F1F1F1"/>
		<stop  offset="1" style="stop-color:#CBCBCB"/>
	</linearGradient>
	<rect x="43" y="768" class="st7" width="394" height="23"/>
	<linearGradient id="SVGID_9_" gradientUnits="userSpaceOnUse" x1="240" y1="902.4972" x2="240" y2="912.1403">
		<stop  offset="0" style="stop-color:#F1F1F1"/>
		<stop  offset="1" style="stop-color:#CBCBCB"/>
	</linearGradient>
	<rect x="43" y="905" class="st8" width="394" height="24"/>
	<linearGradient id="SVGID_10_" gradientUnits="userSpaceOnUse" x1="616.5" y1="640.4972" x2="616.5" y2="650.1403">
		<stop  offset="0" style="stop-color:#F1F1F1"/>
		<stop  offset="1" style="stop-color:#CBCBCB"/>
	</linearGradient>
	<rect x="444" y="643" class="st9" width="345" height="24"/>
	<linearGradient id="SVGID_11_" gradientUnits="userSpaceOnUse" x1="967.5" y1="640.4972" x2="967.5" y2="650.1403">
		<stop  offset="0" style="stop-color:#F1F1F1"/>
		<stop  offset="1" style="stop-color:#CBCBCB"/>
	</linearGradient>
	<rect x="796" y="643" class="st10" width="343" height="24"/>
	<g>
		<g>
			<linearGradient id="SVGID_12_" gradientUnits="userSpaceOnUse" x1="771.5" y1="506.3999" x2="771.5" y2="520.5496">
				<stop  offset="0" style="stop-color:#E6E6E5"/>
				<stop  offset="1" style="stop-color:#B2B2B2"/>
			</linearGradient>
			<path class="st11" d="M786,515.8c0,1.8-1.4,3.2-3.2,3.2h-22.6c-1.8,0-3.2-1.4-3.2-3.2v-4.6c0-1.8,1.4-3.2,3.2-3.2h22.6
				c1.8,0,3.2,1.4,3.2,3.2V515.8z"/>
			<linearGradient id="SVGID_13_" gradientUnits="userSpaceOnUse" x1="821" y1="503.6725" x2="821" y2="524.254">
				<stop  offset="0" style="stop-color:#726356"/>
				<stop  offset="1" style="stop-color:#524740"/>
			</linearGradient>
			<path class="st12" d="M860,518.8c0,1.8-1.4,3.2-3.2,3.2h-71.6c-1.8,0-3.2-1.4-3.2-3.2v-9.6c0-1.8,1.4-3.2,3.2-3.2h71.6
				c1.8,0,3.2,1.4,3.2,3.2V518.8z"/>
		</g>
		<linearGradient id="SVGID_14_" gradientUnits="userSpaceOnUse" x1="700.4052" y1="454.2894" x2="700.4052" y2="482.8966">
			<stop  offset="0" style="stop-color:#726356"/>
			<stop  offset="1" style="stop-color:#524740"/>
		</linearGradient>
		<path class="st13" d="M700.4,457.6c-14.8-0.6-12.2,4.3-8.2,9.6c4.1,5.5,1,11.1,1,11.1l4.8,0.9v0.6l2-0.3l2,0.3v-0.6l5.2-0.9
			c0,0-2.8-5.5,1.4-11.1C712.6,461.9,715.2,457,700.4,457.6z"/>
		<linearGradient id="SVGID_15_" gradientUnits="userSpaceOnUse" x1="700.8906" y1="485.9262" x2="700.8906" y2="592.6924">
			<stop  offset="0" style="stop-color:#F1E533"/>
			<stop  offset="1" style="stop-color:#F1AA3E"/>
		</linearGradient>
		<path class="st14" d="M642.5,576.1c0,2.7,1.4,4.9,3.2,4.9H756c1.8,0,3.2-2.1,3.2-4.9l6.4-78.1H636.1L642.5,576.1z"/>
		<linearGradient id="SVGID_16_" gradientUnits="userSpaceOnUse" x1="700.8911" y1="471.636" x2="700.8911" y2="510.2262">
			<stop  offset="0" style="stop-color:#F1E533"/>
			<stop  offset="1" style="stop-color:#F1AA3E"/>
		</linearGradient>
		<path class="st15" d="M770.5,502.6c0,1.8-1.4,3.4-3.1,3.4H634.3c-1.7,0-3.1-1.7-3.1-3.4l2.5-22.9c0-1.8,1.4-3.6,3.1-3.6H765
			c1.7,0,3.1,1.8,3.1,3.6L770.5,502.6z"/>
	</g>
	<linearGradient id="SVGID_17_" gradientUnits="userSpaceOnUse" x1="845" y1="578.6725" x2="845" y2="599.254">
		<stop  offset="0" style="stop-color:#B2B2B2"/>
		<stop  offset="1" style="stop-color:#666666"/>
	</linearGradient>
	<path class="st16" d="M1085,595c0,1.1-0.8,2-1.9,2H606.9c-1,0-1.9-0.9-1.9-2v-12c0-1.1,0.8-2,1.9-2h476.3c1,0,1.9,0.9,1.9,2V595z"
		/>
	<g>
		<linearGradient id="SVGID_18_" gradientUnits="userSpaceOnUse" x1="264.1801" y1="519.6672" x2="264.1801" y2="585.6143">
			<stop  offset="0" style="stop-color:#B2B2B2"/>
			<stop  offset="1" style="stop-color:#E6E6E5"/>
		</linearGradient>
		<path class="st17" d="M255.2,577.9c-2.4-12.1-5-48.6-5-48.6s34.2-4.9,26.9,4.9c-7.3,9.7-7.1,9.7-7.1,9.7v43.7L255.2,577.9z"/>
		<linearGradient id="SVGID_19_" gradientUnits="userSpaceOnUse" x1="245.6687" y1="600.3171" x2="221.7804" y2="516.7079">
			<stop  offset="0" style="stop-color:#B2B2B2"/>
			<stop  offset="1" style="stop-color:#E6E6E5"/>
		</linearGradient>
		<path class="st18" d="M272.4,577.9c-3.3-24.4-56.4-91-56.4-91c0-0.7-0.7-1-1.7-1h-25.6c-0.9,0-1.7,0.3-1.7,1v24.7
			c0,0.7,0.8,2.3,1.7,2.3h25.6c0.5,0,1-0.7,1.3-1c9,15.6,27.7,49.6,27.7,65.2C243.4,598.7,275.8,603.6,272.4,577.9z"/>
	</g>
	<g>
		<path class="st19" d="M508,547l-13.2-33.6c-20.4-8.1-41.8-56-41.8-56s46.9,41.8,53,47.9c6.1,6.1,8.1,38.7,8.1,38.7"/>
		<path class="st19" d="M526.3,542.9c0,0,6.1-28.5,6.1-38.7c0-10.2-6.1-67.2-6.1-67.2s-12.2,60.1-11.2,74.4
			c1,14.3,4.1,38.7,4.1,38.7"/>
		<path class="st20" d="M508,548c0,0,3.1-54,2-63.2c-1-9.2-12.2-31.6-12.2-31.6s28.5,36.7,27.5,50.9"/>
		<path class="st20" d="M522.3,540.9c0,0,9.2-36.7,14.3-47.9c5.1-11.2,18.3-30.6,18.3-30.6s-4.1,31.6-9.2,42.8"/>
		<linearGradient id="SVGID_20_" gradientUnits="userSpaceOnUse" x1="515" y1="529" x2="515" y2="598.8557">
			<stop  offset="0" style="stop-color:#A17A51"/>
			<stop  offset="1" style="stop-color:#886138"/>
		</linearGradient>
		<rect x="488" y="538" class="st21" width="54" height="63"/>
	</g>
	<g>
		<linearGradient id="SVGID_21_" gradientUnits="userSpaceOnUse" x1="1114" y1="163.1972" x2="1114" y2="188.6736">
			<stop  offset="0" style="stop-color:#C1996B"/>
			<stop  offset="1" style="stop-color:#A17A51"/>
		</linearGradient>
		<path class="st22" d="M1282,179c0,12.2-8.8,22-19.8,22H965.8c-10.9,0-19.8-9.8-19.8-22l0,0c0-12.2,8.8-22,19.8-22h296.5
			C1273.2,157,1282,166.8,1282,179L1282,179z"/>
		<g>
			<g>
				<path class="st23" d="M1082,205.5c-6.6,0-11.5-9.2-11.5-21.5s4.9-21.5,11.5-21.5s11.5,9.2,11.5,21.5S1088.5,205.5,1082,205.5z
					 M1082,167.5c-2.7,0-6.5,6.4-6.5,16.5s3.8,16.5,6.5,16.5s6.5-6.4,6.5-16.5S1084.6,167.5,1082,167.5z"/>
			</g>
			<linearGradient id="SVGID_22_" gradientUnits="userSpaceOnUse" x1="1082.2607" y1="175.3835" x2="1082.2607" y2="370.5878">
				<stop  offset="0" style="stop-color:#A17A51"/>
				<stop  offset="1" style="stop-color:#C1996B"/>
			</linearGradient>
			<path class="st24" d="M1109,336.7c0-16.7-6.9-31-16.7-36.9l2.7-89.8c0-5.3-7.2-9.5-12.5-9.5s-13.1,4.3-13.1,9.5l3.2,89.5
				c-10,5.7-17.1,20.2-17.1,37.2c0,14.2,5.5,26.6,12.5,33.6v-25c0-2.5,2-4.5,4.5-4.5s4.5,2,4.5,4.5v30.4c2,0.5,3.5,0.8,5.3,0.8
				c1.6,0,3.7-0.2,4.7-0.6v-30.6c0-2.5,2-4.5,4.5-4.5s4.5,2,4.5,4.5V371C1105,364,1109,351.3,1109,336.7z"/>
		</g>
		<g>
			<g>
				<path class="st23" d="M1151.7,205.5c-6.6,0-11.5-9.2-11.5-21.5s4.9-21.5,11.5-21.5s11.5,9.2,11.5,21.5
					S1158.3,205.5,1151.7,205.5z M1151.7,167.5c-2.7,0-6.5,6.4-6.5,16.5s3.8,16.5,6.5,16.5s6.5-6.4,6.5-16.5
					S1154.4,167.5,1151.7,167.5z"/>
			</g>
			<linearGradient id="SVGID_23_" gradientUnits="userSpaceOnUse" x1="1151.7358" y1="175.3837" x2="1151.7358" y2="370.588">
				<stop  offset="0" style="stop-color:#A17A51"/>
				<stop  offset="1" style="stop-color:#C1996B"/>
			</linearGradient>
			<path class="st25" d="M1161.9,299.8l2.7-89.8c0-5.3-7.2-9.5-12.5-9.5s-13.1,4.3-13.1,9.5l3.2,89.5c-10,5.7-17.2,20.2-17.2,37.2
				c0,38.7-2.1,39.8,26.8,39.8c28.5,0,26.8-1.2,26.8-39.8C1178.5,320.1,1171.6,305.8,1161.9,299.8z"/>
		</g>
		
			<linearGradient id="SVGID_24_" gradientUnits="userSpaceOnUse" x1="1127.7372" y1="143.1886" x2="1127.7372" y2="312.483" gradientTransform="matrix(-1 0 0 1 2359.4727 0)">
			<stop  offset="0" style="stop-color:#59B0D4"/>
			<stop  offset="1" style="stop-color:#71C6D4"/>
		</linearGradient>
		<path class="st26" d="M1188.1,248.4c3.1-0.1,11.9-1.5,18.3-2.4l-1.8,6.8c-0.4,1.5-0.7,2.9-0.7,4.3c-1.1,2.5-2.1,5-2.8,7.7
			c-6.2,23.8,4,47.1,22.7,52c18.8,4.9,39.1-10.4,45.3-34.2c0.7-2.7,1.2-5.4,1.5-8.1c0.7-1.2,1.3-2.6,1.7-4l9.9-37.7
			c1.9-7.4-1.7-14.8-8.2-16.5l-44.6-11.7c-1.8-0.5-3.6-0.4-5.3,0c12.3-19.5,4.9-39.5-0.7-39.5c-7.3,0-22,18-4.5,42.2
			c-1.2,1-2.2,2.2-3.1,3.7c-7.8,3.5-17.7,7.8-26,10.7C1173.4,227.3,1183.1,248.5,1188.1,248.4z M1221.5,200c0,0-11-30,0-26
			S1221.5,200,1221.5,200z"/>
		<g>
			<g>
				<g>
					<path class="st23" d="M1011.5,205.5c-6.6,0-11.5-9.2-11.5-21.5s4.9-21.5,11.5-21.5c6.6,0,11.5,9.2,11.5,21.5
						S1018.1,205.5,1011.5,205.5z M1011.5,167.5c-2.7,0-6.5,6.4-6.5,16.5s3.8,16.5,6.5,16.5c2.7,0,6.5-6.4,6.5-16.5
						S1014.2,167.5,1011.5,167.5z"/>
				</g>
				<linearGradient id="SVGID_25_" gradientUnits="userSpaceOnUse" x1="1011.5068" y1="176.3837" x2="1011.5068" y2="371.588">
					<stop  offset="0" style="stop-color:#A17A51"/>
					<stop  offset="1" style="stop-color:#C1996B"/>
				</linearGradient>
				<path class="st27" d="M1021.6,300.8l2.7-89.8c0-5.3-7.2-9.5-12.5-9.5c-5.3,0-13.1,4.3-13.1,9.5l3.2,89.5
					c-10,5.7-17.2,20.2-17.2,37.2c0,22,12,39.8,26.8,39.8c14.8,0,26.8-17.8,26.8-39.8C1038.3,321.1,1031.4,306.8,1021.6,300.8z"/>
			</g>
			<linearGradient id="SVGID_26_" gradientUnits="userSpaceOnUse" x1="991" y1="340" x2="1031" y2="340">
				<stop  offset="0" style="stop-color:#A17A51"/>
				<stop  offset="1" style="stop-color:#C1996B"/>
			</linearGradient>
			<ellipse class="st28" cx="1011" cy="340" rx="20" ry="28"/>
		</g>
		<g>
			<radialGradient id="SVGID_27_" cx="1011.8569" cy="174.884" r="9.857" gradientUnits="userSpaceOnUse">
				<stop  offset="0" style="stop-color:#C1996B"/>
				<stop  offset="0.9758" style="stop-color:#A17A51"/>
			</radialGradient>
			<path class="st29" d="M1021.7,174.9c0-5.4-4.4-9.9-9.9-9.9c-5.4,0-9.9,4.4-9.9,9.9c0,5.4,4.4,9.9,9.9,9.9
				C1017.3,184.7,1021.7,180.3,1021.7,174.9z"/>
			<radialGradient id="SVGID_28_" cx="1081.9521" cy="174.884" r="9.8573" gradientUnits="userSpaceOnUse">
				<stop  offset="0" style="stop-color:#C1996B"/>
				<stop  offset="0.9758" style="stop-color:#A17A51"/>
			</radialGradient>
			<path class="st30" d="M1091.8,174.9c0-5.4-4.4-9.9-9.9-9.9s-9.9,4.4-9.9,9.9c0,5.4,4.4,9.9,9.9,9.9S1091.8,180.3,1091.8,174.9z"
				/>
			<radialGradient id="SVGID_29_" cx="1152.0479" cy="174.6785" r="9.8573" gradientUnits="userSpaceOnUse">
				<stop  offset="0" style="stop-color:#C1996B"/>
				<stop  offset="0.9758" style="stop-color:#A17A51"/>
			</radialGradient>
			<path class="st31" d="M1161.9,174.7c0-5.4-4.4-9.9-9.9-9.9s-9.9,4.4-9.9,9.9c0,5.4,4.4,9.9,9.9,9.9S1161.9,180.1,1161.9,174.7z"
				/>
			<radialGradient id="SVGID_30_" cx="1222.1431" cy="174.884" r="9.857" gradientUnits="userSpaceOnUse">
				<stop  offset="0" style="stop-color:#C1996B"/>
				<stop  offset="0.9758" style="stop-color:#A17A51"/>
			</radialGradient>
			<path class="st32" d="M1232,174.9c0-5.4-4.4-9.9-9.9-9.9s-9.9,4.4-9.9,9.9c0,5.4,4.4,9.9,9.9,9.9S1232,180.3,1232,174.9z"/>
		</g>
	</g>
	<g>
		<g>
			<g>
				<g>
					<linearGradient id="SVGID_31_" gradientUnits="userSpaceOnUse" x1="293" y1="223.2676" x2="293" y2="269.5883">
						<stop  offset="0" style="stop-color:#F1F1F1"/>
						<stop  offset="1" style="stop-color:#E6E6E5"/>
					</linearGradient>
					<path class="st33" d="M310,289c0,1.7-1.3,3-3,3h-28c-1.7,0-3-1.3-3-3v-74c0-1.7,1.3-3,3-3h28c1.7,0,3,1.3,3,3V289z"/>
					<linearGradient id="SVGID_32_" gradientUnits="userSpaceOnUse" x1="293" y1="195.9437" x2="293" y2="212.1559">
						<stop  offset="0" style="stop-color:#C1996B"/>
						<stop  offset="1" style="stop-color:#886138"/>
					</linearGradient>
					<path class="st34" d="M312,217c0,1.7-1.3,3-3,3h-32c-1.7,0-3-1.3-3-3v-22c0-1.7,1.3-3,3-3h32c1.7,0,3,1.3,3,3V217z"/>
					<linearGradient id="SVGID_33_" gradientUnits="userSpaceOnUse" x1="277.6723" y1="239.9722" x2="292.6723" y2="315.9723">
						<stop  offset="0" style="stop-color:#FFFFFF"/>
						<stop  offset="1" style="stop-color:#FFFFFF;stop-opacity:0"/>
					</linearGradient>
					<path class="st35" d="M281,226c0,0-2,59,0,61s10,2,10,2S280,277,281,226z"/>
				</g>
				<g>
					<linearGradient id="SVGID_34_" gradientUnits="userSpaceOnUse" x1="342" y1="223.2676" x2="342" y2="269.5883">
						<stop  offset="0" style="stop-color:#F1F1F1"/>
						<stop  offset="1" style="stop-color:#E6E6E5"/>
					</linearGradient>
					<path class="st36" d="M359,289c0,1.7-1.3,3-3,3h-28c-1.7,0-3-1.3-3-3v-74c0-1.7,1.3-3,3-3h28c1.7,0,3,1.3,3,3V289z"/>
					<linearGradient id="SVGID_35_" gradientUnits="userSpaceOnUse" x1="342" y1="195.9437" x2="342" y2="212.1559">
						<stop  offset="0" style="stop-color:#C1996B"/>
						<stop  offset="1" style="stop-color:#886138"/>
					</linearGradient>
					<path class="st37" d="M361,217c0,1.7-1.3,3-3,3h-32c-1.7,0-3-1.3-3-3v-22c0-1.7,1.3-3,3-3h32c1.7,0,3,1.3,3,3V217z"/>
					<linearGradient id="SVGID_36_" gradientUnits="userSpaceOnUse" x1="326.6723" y1="239.9722" x2="341.6723" y2="315.9723">
						<stop  offset="0" style="stop-color:#FFFFFF"/>
						<stop  offset="1" style="stop-color:#FFFFFF;stop-opacity:0"/>
					</linearGradient>
					<path class="st38" d="M330,226c0,0-2,59,0,61s10,2,10,2S329,277,330,226z"/>
				</g>
				<g>
					<linearGradient id="SVGID_37_" gradientUnits="userSpaceOnUse" x1="391" y1="223.2676" x2="391" y2="269.5883">
						<stop  offset="0" style="stop-color:#F1F1F1"/>
						<stop  offset="1" style="stop-color:#E6E6E5"/>
					</linearGradient>
					<path class="st39" d="M408,289c0,1.7-1.3,3-3,3h-28c-1.7,0-3-1.3-3-3v-74c0-1.7,1.3-3,3-3h28c1.7,0,3,1.3,3,3V289z"/>
					<linearGradient id="SVGID_38_" gradientUnits="userSpaceOnUse" x1="391" y1="195.9437" x2="391" y2="212.1559">
						<stop  offset="0" style="stop-color:#C1996B"/>
						<stop  offset="1" style="stop-color:#886138"/>
					</linearGradient>
					<path class="st40" d="M410,217c0,1.7-1.3,3-3,3h-32c-1.7,0-3-1.3-3-3v-22c0-1.7,1.3-3,3-3h32c1.7,0,3,1.3,3,3V217z"/>
					<linearGradient id="SVGID_39_" gradientUnits="userSpaceOnUse" x1="375.6723" y1="239.9722" x2="390.6723" y2="315.9723">
						<stop  offset="0" style="stop-color:#FFFFFF"/>
						<stop  offset="1" style="stop-color:#FFFFFF;stop-opacity:0"/>
					</linearGradient>
					<path class="st41" d="M379,226c0,0-2,59,0,61s10,2,10,2S378,277,379,226z"/>
				</g>
			</g>
			<g>
				<g>
					<linearGradient id="SVGID_40_" gradientUnits="userSpaceOnUse" x1="140" y1="217.1127" x2="140" y2="266.9074">
						<stop  offset="0" style="stop-color:#F1F1F1"/>
						<stop  offset="1" style="stop-color:#E6E6E5"/>
					</linearGradient>
					<path class="st42" d="M163.8,219.8c0.2-0.8,0.2-1.8,0.2-2.6c0-6.7-5.4-12.2-12.1-12.2h-24.1c-6.7,0-12.1,5.6-12.1,12.2
						c0,0.8,0.2,1.7,0.3,2.5c-6.2,0.5-11,5.8-11,12.1v47.1c0,6.7,5.3,12.1,11.9,12.1h45.9c6.7,0,12.2-5.4,12.2-12.1v-47.1
						C175,225.5,170,220.3,163.8,219.8z"/>
					<linearGradient id="SVGID_41_" gradientUnits="userSpaceOnUse" x1="140" y1="214.4008" x2="140" y2="207.8892">
						<stop  offset="0" style="stop-color:#C1996B"/>
						<stop  offset="1" style="stop-color:#886138"/>
					</linearGradient>
					<path class="st43" d="M170,204c0,3.9-3.1,7-7,7h-46c-3.9,0-7-3.1-7-7l0,0c0-3.9,3.1-7,7-7h46C166.9,197,170,200.1,170,204
						L170,204z"/>
					<linearGradient id="SVGID_42_" gradientUnits="userSpaceOnUse" x1="120.6417" y1="228.6025" x2="120.6417" y2="248.6931">
						<stop  offset="0" style="stop-color:#FFFFFF"/>
						<stop  offset="1" style="stop-color:#FFFFFF;stop-opacity:0"/>
					</linearGradient>
					<path class="st44" d="M132.8,224.6c0,0-16.9-3.6-21.7,3.6c-4.8,7.2-1.2,30.2-1.2,30.2S108.6,227,132.8,224.6z"/>
					
						<linearGradient id="SVGID_43_" gradientUnits="userSpaceOnUse" x1="2233.1814" y1="808.6113" x2="2233.1814" y2="828.7018" gradientTransform="matrix(-1 0 0 -1 2391.8398 1090.5)">
						<stop  offset="0" style="stop-color:#F1F1F1"/>
						<stop  offset="1" style="stop-color:#E6E6E5"/>
					</linearGradient>
					<path class="st45" d="M146.5,285.9c0,0,16.9,3.6,21.7-3.6c4.8-7.2,1.2-30.2,1.2-30.2S170.7,283.5,146.5,285.9z"/>
				</g>
				<g>
					<linearGradient id="SVGID_44_" gradientUnits="userSpaceOnUse" x1="220" y1="218.1127" x2="220" y2="267.9074">
						<stop  offset="0" style="stop-color:#F1F1F1"/>
						<stop  offset="1" style="stop-color:#E6E6E5"/>
					</linearGradient>
					<path class="st46" d="M243.8,220.8c0.2-0.8,0.2-1.8,0.2-2.6c0-6.7-5.4-12.2-12.1-12.2h-24.1c-6.7,0-12.1,5.6-12.1,12.2
						c0,0.8,0.2,1.7,0.3,2.5c-6.2,0.5-11,5.8-11,12.1v47.1c0,6.7,5.3,12.1,11.9,12.1h45.9c6.7,0,12.2-5.4,12.2-12.1v-47.1
						C255,226.5,250,221.3,243.8,220.8z"/>
					<linearGradient id="SVGID_45_" gradientUnits="userSpaceOnUse" x1="220" y1="215.4008" x2="220" y2="208.8892">
						<stop  offset="0" style="stop-color:#C1996B"/>
						<stop  offset="1" style="stop-color:#886138"/>
					</linearGradient>
					<path class="st47" d="M250,205c0,3.9-3.1,7-7,7h-46c-3.9,0-7-3.1-7-7l0,0c0-3.9,3.1-7,7-7h46C246.9,198,250,201.1,250,205
						L250,205z"/>
					<linearGradient id="SVGID_46_" gradientUnits="userSpaceOnUse" x1="200.6417" y1="229.6025" x2="200.6417" y2="249.6931">
						<stop  offset="0" style="stop-color:#FFFFFF"/>
						<stop  offset="1" style="stop-color:#FFFFFF;stop-opacity:0"/>
					</linearGradient>
					<path class="st48" d="M212.8,225.6c0,0-16.9-3.6-21.7,3.6c-4.8,7.2-1.2,30.2-1.2,30.2S188.6,228,212.8,225.6z"/>
					
						<linearGradient id="SVGID_47_" gradientUnits="userSpaceOnUse" x1="2153.1814" y1="807.6113" x2="2153.1814" y2="827.7018" gradientTransform="matrix(-1 0 0 -1 2391.8398 1090.5)">
						<stop  offset="0" style="stop-color:#F1F1F1"/>
						<stop  offset="1" style="stop-color:#E6E6E5"/>
					</linearGradient>
					<path class="st49" d="M226.5,286.9c0,0,16.9,3.6,21.7-3.6c4.8-7.2,1.2-30.2,1.2-30.2S250.7,284.5,226.5,286.9z"/>
				</g>
			</g>
		</g>
		<g>
			<g>
				<linearGradient id="SVGID_48_" gradientUnits="userSpaceOnUse" x1="120" y1="358" x2="120" y2="311.9565">
					<stop  offset="0" style="stop-color:#C1996B"/>
					<stop  offset="1" style="stop-color:#886138"/>
				</linearGradient>
				<path class="st50" d="M128,364c0,4.4-3.6,8-8,8l0,0c-4.4,0-8-3.6-8-8v-58c0-4.4,3.6-8,8-8l0,0c4.4,0,8,3.6,8,8V364z"/>
				<linearGradient id="SVGID_49_" gradientUnits="userSpaceOnUse" x1="403" y1="363" x2="403" y2="316.9565">
					<stop  offset="0" style="stop-color:#C1996B"/>
					<stop  offset="1" style="stop-color:#886138"/>
				</linearGradient>
				<path class="st51" d="M411,364c0,4.4-3.6,8-8,8l0,0c-4.4,0-8-3.6-8-8v-58c0-4.4,3.6-8,8-8l0,0c4.4,0,8,3.6,8,8V364z"/>
			</g>
			<linearGradient id="SVGID_50_" gradientUnits="userSpaceOnUse" x1="258.5" y1="287.0907" x2="258.5" y2="312.8175">
				<stop  offset="0" style="stop-color:#C1996B"/>
				<stop  offset="1" style="stop-color:#A17A51"/>
			</linearGradient>
			<path class="st52" d="M433,300c0,5.5-2.8,10-6.2,10H90.2c-3.4,0-6.2-4.5-6.2-10l0,0c0-5.5,2.8-10,6.2-10h336.6
				C430.2,290,433,294.5,433,300L433,300z"/>
		</g>
	</g>
	<g>
		<g>
			<linearGradient id="SVGID_51_" gradientUnits="userSpaceOnUse" x1="599" y1="218.1127" x2="599" y2="267.9074">
				<stop  offset="0" style="stop-color:#F1F1F1"/>
				<stop  offset="1" style="stop-color:#E6E6E5"/>
			</linearGradient>
			<path class="st53" d="M622.8,220.8c0.2-0.8,0.2-1.8,0.2-2.6c0-6.7-5.4-12.2-12.1-12.2h-24.1c-6.7,0-12.1,5.6-12.1,12.2
				c0,0.8,0.2,1.7,0.3,2.5c-6.2,0.5-11,5.8-11,12.1v47.1c0,6.7,5.3,12.1,11.9,12.1h45.9c6.7,0,12.2-5.4,12.2-12.1v-47.1
				C634,226.5,629,221.3,622.8,220.8z"/>
			<linearGradient id="SVGID_52_" gradientUnits="userSpaceOnUse" x1="599" y1="215.4008" x2="599" y2="208.8892">
				<stop  offset="0" style="stop-color:#C1996B"/>
				<stop  offset="1" style="stop-color:#886138"/>
			</linearGradient>
			<path class="st54" d="M629,205c0,3.9-3.1,7-7,7h-46c-3.9,0-7-3.1-7-7l0,0c0-3.9,3.1-7,7-7h46C625.9,198,629,201.1,629,205
				L629,205z"/>
			<path class="st55" d="M568.7,251.8c0,0-0.7,26.8,0.7,30.1s8.7,6,12.7,6s43.2,3,45.3-4.9c2.1-7.9,0.7-26.1,0.7-26.1s-11.3,0-18,0
				S572.7,249,568.7,251.8z"/>
			<linearGradient id="SVGID_53_" gradientUnits="userSpaceOnUse" x1="579.6415" y1="229.6025" x2="579.6415" y2="249.6931">
				<stop  offset="0" style="stop-color:#FFFFFF"/>
				<stop  offset="1" style="stop-color:#FFFFFF;stop-opacity:0"/>
			</linearGradient>
			<path class="st56" d="M591.8,225.6c0,0-16.9-3.6-21.7,3.6c-4.8,7.2-1.2,30.2-1.2,30.2S567.6,228,591.8,225.6z"/>
			
				<linearGradient id="SVGID_54_" gradientUnits="userSpaceOnUse" x1="1774.1813" y1="807.6113" x2="1774.1813" y2="827.7018" gradientTransform="matrix(-1 0 0 -1 2391.8398 1090.5)">
				<stop  offset="0" style="stop-color:#F1F1F1"/>
				<stop  offset="1" style="stop-color:#E6E6E5"/>
			</linearGradient>
			<path class="st57" d="M605.5,286.9c0,0,16.9,3.6,21.7-3.6c4.8-7.2,1.2-30.2,1.2-30.2S629.7,284.5,605.5,286.9z"/>
		</g>
		<g>
			<linearGradient id="SVGID_55_" gradientUnits="userSpaceOnUse" x1="682" y1="217.1127" x2="682" y2="266.9074">
				<stop  offset="0" style="stop-color:#F1F1F1"/>
				<stop  offset="1" style="stop-color:#E6E6E5"/>
			</linearGradient>
			<path class="st58" d="M705.8,219.8c0.2-0.8,0.2-1.8,0.2-2.6c0-6.7-5.4-12.2-12.1-12.2h-24.1c-6.7,0-12.1,5.6-12.1,12.2
				c0,0.8,0.2,1.7,0.3,2.5c-6.2,0.5-11,5.8-11,12.1v47.1c0,6.7,5.3,12.1,11.9,12.1h45.9c6.7,0,12.2-5.4,12.2-12.1v-47.1
				C717,225.5,712,220.3,705.8,219.8z"/>
			<linearGradient id="SVGID_56_" gradientUnits="userSpaceOnUse" x1="682" y1="214.4008" x2="682" y2="207.8892">
				<stop  offset="0" style="stop-color:#C1996B"/>
				<stop  offset="1" style="stop-color:#886138"/>
			</linearGradient>
			<path class="st59" d="M712,204c0,3.9-3.1,7-7,7h-46c-3.9,0-7-3.1-7-7l0,0c0-3.9,3.1-7,7-7h46C708.9,197,712,200.1,712,204
				L712,204z"/>
			<path class="st55" d="M651.7,250.8c0,0-0.7,26.8,0.7,30.1s8.7,6,12.7,6s43.2,3,45.3-4.9c2.1-7.9,0.7-26.1,0.7-26.1s-11.3,0-18,0
				S655.7,248,651.7,250.8z"/>
			<linearGradient id="SVGID_57_" gradientUnits="userSpaceOnUse" x1="662.6415" y1="228.6025" x2="662.6415" y2="248.6931">
				<stop  offset="0" style="stop-color:#FFFFFF"/>
				<stop  offset="1" style="stop-color:#FFFFFF;stop-opacity:0"/>
			</linearGradient>
			<path class="st60" d="M674.8,224.6c0,0-16.9-3.6-21.7,3.6c-4.8,7.2-1.2,30.2-1.2,30.2S650.6,227,674.8,224.6z"/>
			
				<linearGradient id="SVGID_58_" gradientUnits="userSpaceOnUse" x1="1691.1813" y1="808.6113" x2="1691.1813" y2="828.7018" gradientTransform="matrix(-1 0 0 -1 2391.8398 1090.5)">
				<stop  offset="0" style="stop-color:#F1F1F1"/>
				<stop  offset="1" style="stop-color:#E6E6E5"/>
			</linearGradient>
			<path class="st61" d="M688.5,285.9c0,0,16.9,3.6,21.7-3.6c4.8-7.2,1.2-30.2,1.2-30.2S712.7,283.5,688.5,285.9z"/>
		</g>
		<g>
			<linearGradient id="SVGID_59_" gradientUnits="userSpaceOnUse" x1="757" y1="284.8451" x2="757" y2="288.3191">
				<stop  offset="0" style="stop-color:#C1996B"/>
				<stop  offset="1" style="stop-color:#886138"/>
			</linearGradient>
			<path class="st62" d="M780,287.2c0,1.5-1.9,2.8-4.3,2.8h-37.4c-2.4,0-4.3-1.3-4.3-2.8v-0.4c0-1.5,1.9-2.8,4.3-2.8h37.4
				c2.4,0,4.3,1.3,4.3,2.8V287.2z"/>
			<linearGradient id="SVGID_60_" gradientUnits="userSpaceOnUse" x1="756.5435" y1="234.6693" x2="756.5435" y2="265.8928">
				<stop  offset="0" style="stop-color:#C1996B"/>
				<stop  offset="1" style="stop-color:#886138"/>
			</linearGradient>
			<path class="st63" d="M774.6,262.5c-5.1-7.6-6.8-12.6-6.8-16.9c0-4.2,0.1-18.6,0.1-18.6l-11.7,3.2l-11.4-3.1
				c0,0,0.4,14.4,0.4,18.6c0,4.2-1.7,9.2-6.8,16.8c-5.1,7.6-1.7,18.5-1.7,18.5h18.6h1.7h19.2C776.3,281,779.7,270.2,774.6,262.5z"/>
			<linearGradient id="SVGID_61_" gradientUnits="userSpaceOnUse" x1="756.7334" y1="198.9699" x2="756.7334" y2="219.08">
				<stop  offset="0" style="stop-color:#C1996B"/>
				<stop  offset="1" style="stop-color:#886138"/>
			</linearGradient>
			<path class="st64" d="M777.1,211.4c0-9.6-9.1-17.4-20.3-17.4c-11.2,0-20.3,7.8-20.3,17.4c0,9.6,9.1,17.4,20.3,17.4
				C768,228.8,777.1,221,777.1,211.4z"/>
			<linearGradient id="SVGID_62_" gradientUnits="userSpaceOnUse" x1="756.5" y1="224.8451" x2="756.5" y2="228.3191">
				<stop  offset="0" style="stop-color:#C1996B"/>
				<stop  offset="1" style="stop-color:#886138"/>
			</linearGradient>
			<path class="st65" d="M772,227c0,1.6-1.3,3-3,3H744c-1.6,0-3-1.3-3-3V227c0-1.6,1.3-3,3-3H769C770.7,224,772,225.3,772,227
				L772,227z"/>
			<linearGradient id="SVGID_63_" gradientUnits="userSpaceOnUse" x1="756.5" y1="230.8451" x2="756.5" y2="234.3191">
				<stop  offset="0" style="stop-color:#C1996B"/>
				<stop  offset="1" style="stop-color:#886138"/>
			</linearGradient>
			<path class="st66" d="M772,233c0,1.6-1.3,3-3,3H744c-1.6,0-3-1.3-3-3V233c0-1.6,1.3-3,3-3H769C770.7,230,772,231.3,772,233
				L772,233z"/>
			<linearGradient id="SVGID_64_" gradientUnits="userSpaceOnUse" x1="757" y1="279.8451" x2="757" y2="283.3191">
				<stop  offset="0" style="stop-color:#C1996B"/>
				<stop  offset="1" style="stop-color:#886138"/>
			</linearGradient>
			<path class="st67" d="M780,282.2c0,1.5-1.9,2.8-4.3,2.8h-37.4c-2.4,0-4.3-1.3-4.3-2.8v-0.4c0-1.5,1.9-2.8,4.3-2.8h37.4
				c2.4,0,4.3,1.3,4.3,2.8V282.2z"/>
			<linearGradient id="SVGID_65_" gradientUnits="userSpaceOnUse" x1="756" y1="190.8451" x2="756" y2="194.3191">
				<stop  offset="0" style="stop-color:#F1F1F1"/>
				<stop  offset="1" style="stop-color:#E6E6E5"/>
			</linearGradient>
			<path class="st68" d="M759,193c0-1.6-1.3-3-3-3H756c-1.6,0-3,1.3-3,3v0.1c0,1.6,1.3,3,3,3h0.1C757.7,196,759,194.7,759,193
				L759,193z"/>
		</g>
		<g>
			<linearGradient id="SVGID_66_" gradientUnits="userSpaceOnUse" x1="809" y1="284.8451" x2="809" y2="288.3191">
				<stop  offset="0" style="stop-color:#726356"/>
				<stop  offset="1" style="stop-color:#524740"/>
			</linearGradient>
			<path class="st69" d="M832,287.2c0,1.5-1.9,2.8-4.3,2.8h-37.4c-2.4,0-4.3-1.3-4.3-2.8v-0.4c0-1.5,1.9-2.8,4.3-2.8h37.4
				c2.4,0,4.3,1.3,4.3,2.8V287.2z"/>
			<linearGradient id="SVGID_67_" gradientUnits="userSpaceOnUse" x1="808.5436" y1="234.6693" x2="808.5436" y2="265.8928">
				<stop  offset="0" style="stop-color:#726356"/>
				<stop  offset="1" style="stop-color:#524740"/>
			</linearGradient>
			<path class="st70" d="M826.6,262.5c-5.1-7.6-6.8-12.6-6.8-16.9c0-4.2,0.1-18.6,0.1-18.6l-11.7,3.2l-11.4-3.1
				c0,0,0.4,14.4,0.4,18.6c0,4.2-1.7,9.2-6.8,16.8c-5.1,7.6-1.7,18.5-1.7,18.5h18.6h1.7h19.2C828.3,281,831.7,270.2,826.6,262.5z"/>
			<linearGradient id="SVGID_68_" gradientUnits="userSpaceOnUse" x1="808.7334" y1="198.9699" x2="808.7334" y2="219.08">
				<stop  offset="0" style="stop-color:#726356"/>
				<stop  offset="1" style="stop-color:#524740"/>
			</linearGradient>
			<path class="st71" d="M829.1,211.4c0-9.6-9.1-17.4-20.3-17.4c-11.2,0-20.3,7.8-20.3,17.4c0,9.6,9.1,17.4,20.3,17.4
				C820,228.8,829.1,221,829.1,211.4z"/>
			<linearGradient id="SVGID_69_" gradientUnits="userSpaceOnUse" x1="808.5" y1="224.8451" x2="808.5" y2="228.3191">
				<stop  offset="0" style="stop-color:#726356"/>
				<stop  offset="1" style="stop-color:#524740"/>
			</linearGradient>
			<path class="st72" d="M824,227c0,1.6-1.3,3-3,3H796c-1.6,0-3-1.3-3-3V227c0-1.6,1.3-3,3-3H821C822.7,224,824,225.3,824,227
				L824,227z"/>
			<linearGradient id="SVGID_70_" gradientUnits="userSpaceOnUse" x1="808.5" y1="230.8451" x2="808.5" y2="234.3191">
				<stop  offset="0" style="stop-color:#726356"/>
				<stop  offset="1" style="stop-color:#524740"/>
			</linearGradient>
			<path class="st73" d="M824,233c0,1.6-1.3,3-3,3H796c-1.6,0-3-1.3-3-3V233c0-1.6,1.3-3,3-3H821C822.7,230,824,231.3,824,233
				L824,233z"/>
			<linearGradient id="SVGID_71_" gradientUnits="userSpaceOnUse" x1="809" y1="279.8451" x2="809" y2="283.3191">
				<stop  offset="0" style="stop-color:#726356"/>
				<stop  offset="1" style="stop-color:#524740"/>
			</linearGradient>
			<path class="st74" d="M832,282.2c0,1.5-1.9,2.8-4.3,2.8h-37.4c-2.4,0-4.3-1.3-4.3-2.8v-0.4c0-1.5,1.9-2.8,4.3-2.8h37.4
				c2.4,0,4.3,1.3,4.3,2.8V282.2z"/>
			<linearGradient id="SVGID_72_" gradientUnits="userSpaceOnUse" x1="808" y1="190.8451" x2="808" y2="194.3191">
				<stop  offset="0" style="stop-color:#F1F1F1"/>
				<stop  offset="1" style="stop-color:#E6E6E5"/>
			</linearGradient>
			<path class="st75" d="M811,193c0-1.6-1.3-3-3-3H808c-1.6,0-3,1.3-3,3v0.1c0,1.6,1.3,3,3,3h0.1C809.7,196,811,194.7,811,193
				L811,193z"/>
		</g>
		<g>
			<g>
				<linearGradient id="SVGID_73_" gradientUnits="userSpaceOnUse" x1="566" y1="358" x2="566" y2="311.9565">
					<stop  offset="0" style="stop-color:#C1996B"/>
					<stop  offset="1" style="stop-color:#886138"/>
				</linearGradient>
				<path class="st76" d="M574,364c0,4.4-3.6,8-8,8l0,0c-4.4,0-8-3.6-8-8v-58c0-4.4,3.6-8,8-8l0,0c4.4,0,8,3.6,8,8V364z"/>
				<linearGradient id="SVGID_74_" gradientUnits="userSpaceOnUse" x1="849" y1="363" x2="849" y2="316.9565">
					<stop  offset="0" style="stop-color:#C1996B"/>
					<stop  offset="1" style="stop-color:#886138"/>
				</linearGradient>
				<path class="st77" d="M857,364c0,4.4-3.6,8-8,8l0,0c-4.4,0-8-3.6-8-8v-58c0-4.4,3.6-8,8-8l0,0c4.4,0,8,3.6,8,8V364z"/>
			</g>
			<linearGradient id="SVGID_75_" gradientUnits="userSpaceOnUse" x1="704.5" y1="287.0907" x2="704.5" y2="312.8175">
				<stop  offset="0" style="stop-color:#C1996B"/>
				<stop  offset="1" style="stop-color:#A17A51"/>
			</linearGradient>
			<path class="st78" d="M879,300c0,5.5-2.8,10-6.2,10H536.2c-3.4,0-6.2-4.5-6.2-10l0,0c0-5.5,2.8-10,6.2-10h336.6
				C876.2,290,879,294.5,879,300L879,300z"/>
		</g>
	</g>
	<linearGradient id="SVGID_76_" gradientUnits="userSpaceOnUse" x1="199" y1="492.1869" x2="199" y2="504.1917">
		<stop  offset="0" style="stop-color:#FFFFFF"/>
		<stop  offset="1" style="stop-color:#FFFFFF;stop-opacity:0"/>
	</linearGradient>
	<path class="st79" d="M208,490.2c0,0-18-2.5-18,0.8s0,19,0,19S193.7,491.3,208,490.2z"/>
	<g>
		<g>
			<linearGradient id="SVGID_77_" gradientUnits="userSpaceOnUse" x1="1291.4397" y1="529.5389" x2="1264.5795" y2="435.5282">
				<stop  offset="0" style="stop-color:#524740"/>
				<stop  offset="1" style="stop-color:#726356"/>
			</linearGradient>
			<path class="st80" d="M1332,514c0,2.8-2.2,5-5,5h-110c-2.8,0-5-2.2-5-5V409c0-2.8,2.2-5,5-5h110c2.8,0,5,2.2,5,5V514z"/>
			<linearGradient id="SVGID_78_" gradientUnits="userSpaceOnUse" x1="1282.2288" y1="426.8008" x2="1268.0955" y2="377.3341">
				<stop  offset="0" style="stop-color:#726356"/>
				<stop  offset="1" style="stop-color:#978474"/>
			</linearGradient>
			<path class="st81" d="M1338,407c0,2.8-2.2,5-5,5h-122c-2.8,0-5-2.2-5-5v-32c0-2.8,2.2-5,5-5h122c2.8,0,5,2.2,5,5V407z"/>
			<linearGradient id="SVGID_79_" gradientUnits="userSpaceOnUse" x1="1282.2288" y1="570.8008" x2="1268.0955" y2="521.3341">
				<stop  offset="0" style="stop-color:#726356"/>
				<stop  offset="1" style="stop-color:#978474"/>
			</linearGradient>
			<path class="st82" d="M1338,551c0,2.8-2.2,5-5,5h-122c-2.8,0-5-2.2-5-5v-32c0-2.8,2.2-5,5-5h122c2.8,0,5,2.2,5,5V551z"/>
			<g>
				<g>
					<path class="st83" d="M1313.2,494l-3.3-9.4c0,0,6-2.1,12.8-7.2c1.3-1.2,3.9-8,4-14.9c0-3.8-0.8-6.8-2.2-8.1
						c-2-1.9-4-2.8-5.7-2.7c-2.6,0.1-4.5,2.3-4.5,2.3l-7.6-6.5c0.5-0.5,4.7-5.4,11.5-5.8c3.2-0.2,8.1,0.6,13.2,5.3
						c3.9,3.6,5.8,9.6,5.4,17.4c-0.4,7.8-3.3,17.5-8,21C1320.5,491.4,1313.5,493.9,1313.2,494z"/>
				</g>
				<linearGradient id="SVGID_80_" gradientUnits="userSpaceOnUse" x1="1283.0454" y1="513.0309" x2="1265.885" y2="452.9693">
					<stop  offset="0" style="stop-color:#B2B2B2"/>
					<stop  offset="1" style="stop-color:#E6E6E5"/>
				</linearGradient>
				<path class="st84" d="M1318.3,468.2c0-24-21.4-43.4-47.8-43.4c-26.4,0-47.8,19.4-47.8,43.4c0,24,14.7,45.4,47.8,45.4
					C1306,513.6,1318.3,492.2,1318.3,468.2z"/>
				<linearGradient id="SVGID_81_" gradientUnits="userSpaceOnUse" x1="1275.6674" y1="449.0857" x2="1268.5276" y2="424.0963">
					<stop  offset="0" style="stop-color:#726356"/>
					<stop  offset="1" style="stop-color:#978474"/>
				</linearGradient>
				<path class="st85" d="M1310,436.7c0,1.8-1.4,3.3-3.1,3.3h-72.8c-1.7,0-3.1-1.5-3.1-3.3v-11.5c0-1.8,1.4-3.3,3.1-3.3h72.8
					c1.7,0,3.1,1.5,3.1,3.3V436.7z"/>
			</g>
		</g>
		<linearGradient id="SVGID_82_" gradientUnits="userSpaceOnUse" x1="1398.2178" y1="531.2598" x2="1398.6696" y2="491.2798">
			<stop  offset="0" style="stop-color:#EC8E25"/>
			<stop  offset="1" style="stop-color:#F1AA3E"/>
		</linearGradient>
		<path class="st86" d="M1428.7,501.2c-2.7-2.4-6.7-2.8-8.7-2.5v-5.5c0-2.3-2.3-4.3-4.6-4.3h-48.7c-2.3,0-3.7,2-3.7,4.3v58.6
			c0,2.3,1.4,4.1,3.7,4.1h48.7c2.3,0,4.6-1.8,4.6-4.1v-12.4C1435,530,1438.1,509.4,1428.7,501.2z M1424.2,521.4
			c-1.2,3-3.2,5.3-4.2,7v-21.2C1424,508.8,1426.7,514.9,1424.2,521.4z"/>
		<linearGradient id="SVGID_83_" gradientUnits="userSpaceOnUse" x1="1480.2178" y1="531.2598" x2="1480.6696" y2="491.2798">
			<stop  offset="0" style="stop-color:#86BC43"/>
			<stop  offset="1" style="stop-color:#CFD62E"/>
		</linearGradient>
		<path class="st87" d="M1510.7,501.2c-2.7-2.4-6.7-2.8-8.7-2.5v-5.5c0-2.3-2.3-4.3-4.6-4.3h-48.7c-2.3,0-3.7,2-3.7,4.3v58.6
			c0,2.3,1.4,4.1,3.7,4.1h48.7c2.3,0,4.6-1.8,4.6-4.1v-12.4C1517,530,1520.1,509.4,1510.7,501.2z M1506.2,521.4
			c-1.2,3-3.2,5.3-4.2,7v-21.2C1506,508.8,1508.7,514.9,1506.2,521.4z"/>
	</g>
	
		<linearGradient id="SVGID_84_" gradientUnits="userSpaceOnUse" x1="586.9294" y1="381.2473" x2="587.2546" y2="352.4651" gradientTransform="matrix(1 0 0 -1 0 991)">
		<stop  offset="0" style="stop-color:#F1F1F1"/>
		<stop  offset="1" style="stop-color:#CBCBCB"/>
	</linearGradient>
	<path class="st88" d="M1150,602c0-2.2-1.8-4-4.1-4H28.1c-2.3,0-4.1,1.8-4.1,4V630c0,2.2,1.8,4,4.1,4h1117.8c2.3,0,4.1-1.8,4.1-4
		V602z"/>
	<linearGradient id="SVGID_85_" gradientUnits="userSpaceOnUse" x1="1354.5" y1="540.7356" x2="1354.5" y2="734.3998">
		<stop  offset="0" style="stop-color:#B7282C"/>
		<stop  offset="1" style="stop-color:#E65959"/>
	</linearGradient>
	<rect x="1150" y="591" class="st89" width="409" height="482"/>
	
		<linearGradient id="SVGID_86_" gradientUnits="userSpaceOnUse" x1="1350.4406" y1="313.2573" x2="1350.7142" y2="289.0362" gradientTransform="matrix(1 0 0 -1 0 881)">
		<stop  offset="0" style="stop-color:#F1F1F1"/>
		<stop  offset="1" style="stop-color:#CBCBCB"/>
	</linearGradient>
	<path class="st90" d="M1570,559c0-2.2-0.7-4-1.6-4h-435.8c-0.9,0-1.6,1.8-1.6,4V587c0,2.2,0.7,4,1.6,4h435.8c0.9,0,1.6-1.8,1.6-4
		V559z"/>
</g>
</svg>
