<?xml version="1.0" encoding="utf-8"?>
<!-- Generator: Adobe Illustrator 22.1.0, SVG Export Plug-In . SVG Version: 6.00 Build 0)  -->
<svg version="1.1" id="レイヤー_1" xmlns="http://www.w3.org/2000/svg" xmlns:xlink="http://www.w3.org/1999/xlink" x="0px"
	 y="0px" viewBox="0 0 693 519" style="enable-background:new 0 0 693 519;" xml:space="preserve">
<style type="text/css">
	.st0{clip-path:url(#SVGID_2_);}
	.st1{fill:url(#SVGID_3_);}
	.st2{fill:url(#SVGID_4_);}
	.st3{fill:url(#SVGID_5_);}
	.st4{fill:url(#SVGID_6_);}
	.st5{fill:url(#SVGID_7_);}
	.st6{fill:url(#SVGID_8_);}
</style>
<g>
	<defs>
		<rect id="SVGID_1_" y="43" width="693" height="476"/>
	</defs>
	<clipPath id="SVGID_2_">
		<use xlink:href="#SVGID_1_"  style="overflow:visible;"/>
	</clipPath>
	<g class="st0">
		<linearGradient id="SVGID_3_" gradientUnits="userSpaceOnUse" x1="196" y1="16.7598" x2="196" y2="198.772">
			<stop  offset="0" style="stop-color:#B7282C"/>
			<stop  offset="1" style="stop-color:#7A2B59"/>
		</linearGradient>
		<rect x="-400" y="64" class="st1" width="1192" height="453"/>
		<linearGradient id="SVGID_4_" gradientUnits="userSpaceOnUse" x1="174.5" y1="41.9497" x2="174.5" y2="215.5243">
			<stop  offset="0" style="stop-color:#B7282C"/>
			<stop  offset="1" style="stop-color:#E65959"/>
		</linearGradient>
		<rect x="5" y="87" class="st2" width="339" height="432"/>
		<linearGradient id="SVGID_5_" gradientUnits="userSpaceOnUse" x1="523.5" y1="41.9497" x2="523.5" y2="215.5243">
			<stop  offset="0" style="stop-color:#B7282C"/>
			<stop  offset="1" style="stop-color:#E65959"/>
		</linearGradient>
		<rect x="354" y="87" class="st3" width="339" height="432"/>
		<linearGradient id="SVGID_6_" gradientUnits="userSpaceOnUse" x1="172.5" y1="85.4972" x2="172.5" y2="95.1402">
			<stop  offset="0" style="stop-color:#F1F1F1"/>
			<stop  offset="1" style="stop-color:#CBCBCB"/>
		</linearGradient>
		<rect y="88" class="st4" width="345" height="24"/>
		<linearGradient id="SVGID_7_" gradientUnits="userSpaceOnUse" x1="523.5" y1="85.4972" x2="523.5" y2="95.1402">
			<stop  offset="0" style="stop-color:#F1F1F1"/>
			<stop  offset="1" style="stop-color:#CBCBCB"/>
		</linearGradient>
		<rect x="352" y="88" class="st5" width="343" height="24"/>
		
			<linearGradient id="SVGID_8_" gradientUnits="userSpaceOnUse" x1="142.9294" y1="-173.7527" x2="143.2546" y2="-202.5349" gradientTransform="matrix(1 0 0 -1 0 -119)">
			<stop  offset="0" style="stop-color:#F1F1F1"/>
			<stop  offset="1" style="stop-color:#CBCBCB"/>
		</linearGradient>
		<path class="st6" d="M706,47c0-2.2-1.8-4-4.1-4H-415.9c-2.3,0-4.1,1.8-4.1,4V75c0,2.2,1.8,4,4.1,4H701.9c2.3,0,4.1-1.8,4.1-4V47z"
			/>
	</g>
</g>
</svg>
