<?xml version="1.0" encoding="utf-8"?>
<!-- Generator: Adobe Illustrator 22.1.0, SVG Export Plug-In . SVG Version: 6.00 Build 0)  -->
<svg version="1.1" id="レイヤー_1" xmlns="http://www.w3.org/2000/svg" xmlns:xlink="http://www.w3.org/1999/xlink" x="0px"
	 y="0px" viewBox="0 0 427 519" style="enable-background:new 0 0 427 519;" xml:space="preserve">
<style type="text/css">
	.st0{fill:url(#SVGID_1_);}
	.st1{fill:url(#SVGID_2_);}
	.st2{fill:url(#SVGID_3_);}
	.st3{fill:url(#SVGID_4_);}
	.st4{fill:url(#SVGID_5_);}
	.st5{fill:url(#SVGID_6_);}
	.st6{fill:url(#SVGID_7_);}
	.st7{fill:url(#SVGID_8_);}
</style>
<g>
	<linearGradient id="SVGID_1_" gradientUnits="userSpaceOnUse" x1="224.5" y1="16.7598" x2="224.5" y2="198.772">
		<stop  offset="0" style="stop-color:#B7282C"/>
		<stop  offset="1" style="stop-color:#7A2B59"/>
	</linearGradient>
	<rect x="22" y="64" class="st0" width="405" height="453"/>
	<linearGradient id="SVGID_2_" gradientUnits="userSpaceOnUse" x1="217.5" y1="79.0075" x2="217.5" y2="125.2137">
		<stop  offset="0" style="stop-color:#078B43"/>
		<stop  offset="1" style="stop-color:#E65959"/>
	</linearGradient>
	<rect x="21" y="91" class="st1" width="393" height="115"/>
	<linearGradient id="SVGID_3_" gradientUnits="userSpaceOnUse" x1="217.5" y1="204.8603" x2="217.5" y2="255.4863">
		<stop  offset="0" style="stop-color:#078B43"/>
		<stop  offset="1" style="stop-color:#E65959"/>
	</linearGradient>
	<rect x="21" y="218" class="st2" width="393" height="126"/>
	<linearGradient id="SVGID_4_" gradientUnits="userSpaceOnUse" x1="217.5" y1="339.2104" x2="217.5" y2="403.8991">
		<stop  offset="0" style="stop-color:#078B43"/>
		<stop  offset="1" style="stop-color:#E65959"/>
	</linearGradient>
	<rect x="21" y="356" class="st3" width="393" height="161"/>
	<linearGradient id="SVGID_5_" gradientUnits="userSpaceOnUse" x1="218" y1="86.4972" x2="218" y2="96.1402">
		<stop  offset="0" style="stop-color:#F1F1F1"/>
		<stop  offset="1" style="stop-color:#CBCBCB"/>
	</linearGradient>
	<rect x="21" y="89" class="st4" width="394" height="24"/>
	<linearGradient id="SVGID_6_" gradientUnits="userSpaceOnUse" x1="218" y1="210.6015" x2="218" y2="219.8427">
		<stop  offset="0" style="stop-color:#F1F1F1"/>
		<stop  offset="1" style="stop-color:#CBCBCB"/>
	</linearGradient>
	<rect x="21" y="213" class="st5" width="394" height="23"/>
	<linearGradient id="SVGID_7_" gradientUnits="userSpaceOnUse" x1="218" y1="347.4972" x2="218" y2="357.1402">
		<stop  offset="0" style="stop-color:#F1F1F1"/>
		<stop  offset="1" style="stop-color:#CBCBCB"/>
	</linearGradient>
	<rect x="21" y="350" class="st6" width="394" height="24"/>
	
		<linearGradient id="SVGID_8_" gradientUnits="userSpaceOnUse" x1="214.4408" y1="-174.7629" x2="214.7135" y2="-198.891" gradientTransform="matrix(1 0 0 -1 0 -119)">
		<stop  offset="0" style="stop-color:#F1F1F1"/>
		<stop  offset="1" style="stop-color:#CBCBCB"/>
	</linearGradient>
	<path class="st7" d="M427,47c0-2.2-0.7-4-1.6-4H3.6C2.7,43,2,44.8,2,47V75c0,2.2,0.7,4,1.6,4h421.9c0.9,0,1.6-1.8,1.6-4V47z"/>
</g>
</svg>
