<?xml version="1.0" encoding="utf-8"?>
<!-- Generator: Adobe Illustrator 22.1.0, SVG Export Plug-In . SVG Version: 6.00 Build 0)  -->
<svg version="1.1" id="レイヤー_1" xmlns="http://www.w3.org/2000/svg" xmlns:xlink="http://www.w3.org/1999/xlink" x="0px"
	 y="0px" viewBox="0 0 337 221" style="enable-background:new 0 0 337 221;" xml:space="preserve">
<style type="text/css">
	.st0{fill:url(#SVGID_1_);}
	.st1{fill:#C3AF97;}
	.st2{fill:url(#SVGID_2_);}
	.st3{fill:url(#SVGID_3_);}
	.st4{fill:url(#SVGID_4_);}
	.st5{fill:url(#SVGID_5_);}
	.st6{fill:url(#SVGID_6_);}
	.st7{fill:url(#SVGID_7_);}
	.st8{fill:url(#SVGID_8_);}
	.st9{fill:url(#SVGID_9_);}
	.st10{fill:url(#SVGID_10_);}
</style>
<g>
	<linearGradient id="SVGID_1_" gradientUnits="userSpaceOnUse" x1="168" y1="6.1972" x2="168" y2="31.6736">
		<stop  offset="0" style="stop-color:#C1996B"/>
		<stop  offset="1" style="stop-color:#A17A51"/>
	</linearGradient>
	<path class="st0" d="M336,22c0,12.2-8.8,22-19.8,22H19.8C8.8,44,0,34.2,0,22l0,0C0,9.8,8.8,0,19.8,0h296.5C327.2,0,336,9.8,336,22
		L336,22z"/>
	<g>
		<g>
			<path class="st1" d="M136,48.5c-6.6,0-11.5-9.2-11.5-21.5S129.4,5.5,136,5.5c6.6,0,11.5,9.2,11.5,21.5S142.5,48.5,136,48.5z
				 M136,10.5c-2.7,0-6.5,6.4-6.5,16.5s3.8,16.5,6.5,16.5c2.7,0,6.5-6.4,6.5-16.5S138.6,10.5,136,10.5z"/>
		</g>
		<linearGradient id="SVGID_2_" gradientUnits="userSpaceOnUse" x1="136.2608" y1="18.3835" x2="136.2608" y2="213.5878">
			<stop  offset="0" style="stop-color:#A17A51"/>
			<stop  offset="1" style="stop-color:#C1996B"/>
		</linearGradient>
		<path class="st2" d="M163,179.7c0-16.7-6.9-31-16.7-36.9L149,53c0-5.3-7.2-9.5-12.5-9.5c-5.3,0-13.1,4.3-13.1,9.5l3.2,89.5
			c-10,5.7-17.1,20.2-17.1,37.2c0,14.2,5.5,26.6,12.5,33.6v-25c0-2.5,2-4.5,4.5-4.5c2.5,0,4.5,2,4.5,4.5v30.4c2,0.5,3.5,0.8,5.3,0.8
			c1.6,0,3.7-0.2,4.7-0.6v-30.6c0-2.5,2-4.5,4.5-4.5s4.5,2,4.5,4.5V214C159,207,163,194.3,163,179.7z"/>
	</g>
	<g>
		<g>
			<path class="st1" d="M205.7,48.5c-6.6,0-11.5-9.2-11.5-21.5s4.9-21.5,11.5-21.5c6.6,0,11.5,9.2,11.5,21.5S212.3,48.5,205.7,48.5z
				 M205.7,10.5c-2.7,0-6.5,6.4-6.5,16.5s3.8,16.5,6.5,16.5c2.7,0,6.5-6.4,6.5-16.5S208.4,10.5,205.7,10.5z"/>
		</g>
		<linearGradient id="SVGID_3_" gradientUnits="userSpaceOnUse" x1="205.7359" y1="18.3837" x2="205.7359" y2="213.588">
			<stop  offset="0" style="stop-color:#A17A51"/>
			<stop  offset="1" style="stop-color:#C1996B"/>
		</linearGradient>
		<path class="st3" d="M215.9,142.8l2.7-89.8c0-5.3-7.2-9.5-12.5-9.5c-5.3,0-13.1,4.3-13.1,9.5l3.2,89.5
			c-10,5.7-17.2,20.2-17.2,37.2c0,38.7-2.1,39.8,26.8,39.8c28.5,0,26.8-1.2,26.8-39.8C232.5,163.1,225.6,148.8,215.9,142.8z"/>
	</g>
	
		<linearGradient id="SVGID_4_" gradientUnits="userSpaceOnUse" x1="811.7372" y1="-13.8114" x2="811.7372" y2="155.483" gradientTransform="matrix(-1 0 0 1 1097.4727 0)">
		<stop  offset="0" style="stop-color:#59B0D4"/>
		<stop  offset="1" style="stop-color:#71C6D4"/>
	</linearGradient>
	<path class="st4" d="M242.1,91.4c3.1-0.1,11.9-1.5,18.3-2.4l-1.8,6.8c-0.4,1.5-0.7,2.9-0.7,4.3c-1.1,2.5-2.1,5-2.8,7.7
		c-6.2,23.8,4,47.1,22.7,52s39.1-10.4,45.3-34.2c0.7-2.7,1.2-5.4,1.5-8.1c0.7-1.2,1.3-2.6,1.7-4l9.9-37.7c1.9-7.4-1.7-14.8-8.2-16.5
		l-44.6-11.7c-1.8-0.5-3.6-0.4-5.3,0C290.5,28,283.1,8,277.5,8c-7.3,0-22,18-4.5,42.2c-1.2,1-2.2,2.2-3.1,3.7
		c-7.8,3.5-17.7,7.8-26,10.7C227.4,70.3,237.1,91.5,242.1,91.4z M275.5,43c0,0-11-30,0-26S275.5,43,275.5,43z"/>
	<g>
		<g>
			<g>
				<path class="st1" d="M65.5,48.5C59,48.5,54,39.3,54,27S59,5.5,65.5,5.5C72.1,5.5,77,14.7,77,27S72.1,48.5,65.5,48.5z M65.5,10.5
					c-2.7,0-6.5,6.4-6.5,16.5s3.8,16.5,6.5,16.5c2.7,0,6.5-6.4,6.5-16.5S68.2,10.5,65.5,10.5z"/>
			</g>
			<linearGradient id="SVGID_5_" gradientUnits="userSpaceOnUse" x1="65.5068" y1="19.3837" x2="65.5068" y2="214.588">
				<stop  offset="0" style="stop-color:#A17A51"/>
				<stop  offset="1" style="stop-color:#C1996B"/>
			</linearGradient>
			<path class="st5" d="M75.6,143.8L78.3,54c0-5.3-7.2-9.5-12.5-9.5c-5.3,0-13.1,4.3-13.1,9.5l3.2,89.5c-10,5.7-17.2,20.2-17.2,37.2
				c0,22,12,39.8,26.8,39.8c14.8,0,26.8-17.8,26.8-39.8C92.3,164.1,85.4,149.8,75.6,143.8z"/>
		</g>
		<linearGradient id="SVGID_6_" gradientUnits="userSpaceOnUse" x1="45" y1="183" x2="85" y2="183">
			<stop  offset="0" style="stop-color:#A17A51"/>
			<stop  offset="1" style="stop-color:#C1996B"/>
		</linearGradient>
		<ellipse class="st6" cx="65" cy="183" rx="20" ry="28"/>
	</g>
	<g>
		<radialGradient id="SVGID_7_" cx="65.8569" cy="17.8841" r="9.857" gradientUnits="userSpaceOnUse">
			<stop  offset="0" style="stop-color:#C1996B"/>
			<stop  offset="0.9758" style="stop-color:#A17A51"/>
		</radialGradient>
		<path class="st7" d="M75.7,17.9c0-5.4-4.4-9.9-9.9-9.9c-5.4,0-9.9,4.4-9.9,9.9c0,5.4,4.4,9.9,9.9,9.9
			C71.3,27.7,75.7,23.3,75.7,17.9z"/>
		<radialGradient id="SVGID_8_" cx="135.9521" cy="17.8841" r="9.8573" gradientUnits="userSpaceOnUse">
			<stop  offset="0" style="stop-color:#C1996B"/>
			<stop  offset="0.9758" style="stop-color:#A17A51"/>
		</radialGradient>
		<path class="st8" d="M145.8,17.9c0-5.4-4.4-9.9-9.9-9.9c-5.4,0-9.9,4.4-9.9,9.9c0,5.4,4.4,9.9,9.9,9.9
			C141.4,27.7,145.8,23.3,145.8,17.9z"/>
		<radialGradient id="SVGID_9_" cx="206.0479" cy="17.6784" r="9.8573" gradientUnits="userSpaceOnUse">
			<stop  offset="0" style="stop-color:#C1996B"/>
			<stop  offset="0.9758" style="stop-color:#A17A51"/>
		</radialGradient>
		<path class="st9" d="M215.9,17.7c0-5.4-4.4-9.9-9.9-9.9c-5.4,0-9.9,4.4-9.9,9.9c0,5.4,4.4,9.9,9.9,9.9
			C211.5,27.5,215.9,23.1,215.9,17.7z"/>
		<radialGradient id="SVGID_10_" cx="276.143" cy="17.8841" r="9.857" gradientUnits="userSpaceOnUse">
			<stop  offset="0" style="stop-color:#C1996B"/>
			<stop  offset="0.9758" style="stop-color:#A17A51"/>
		</radialGradient>
		<path class="st10" d="M286,17.9c0-5.4-4.4-9.9-9.9-9.9c-5.4,0-9.9,4.4-9.9,9.9c0,5.4,4.4,9.9,9.9,9.9
			C281.6,27.7,286,23.3,286,17.9z"/>
	</g>
</g>
</svg>
