<?xml version="1.0" encoding="utf-8"?>
<!-- Generator: Adobe Illustrator 22.1.0, SVG Export Plug-In . SVG Version: 6.00 Build 0)  -->
<svg version="1.1" id="レイヤー_1" xmlns="http://www.w3.org/2000/svg" xmlns:xlink="http://www.w3.org/1999/xlink" x="0px"
	 y="0px" viewBox="0 0 1548 519" style="enable-background:new 0 0 1548 519;" xml:space="preserve">
<style type="text/css">
	.st0{fill:url(#SVGID_1_);}
	.st1{fill:url(#SVGID_2_);}
	.st2{fill:url(#SVGID_3_);}
	.st3{fill:url(#SVGID_4_);}
	.st4{fill:url(#SVGID_5_);}
	.st5{fill:url(#SVGID_6_);}
	.st6{fill:url(#SVGID_7_);}
	.st7{fill:url(#SVGID_8_);}
	.st8{fill:url(#SVGID_9_);}
	.st9{fill:url(#SVGID_10_);}
	.st10{fill:url(#SVGID_11_);}
	.st11{fill:url(#SVGID_12_);}
	.st12{fill:url(#SVGID_13_);}
	.st13{fill:url(#SVGID_14_);}
</style>
<g>
	<linearGradient id="SVGID_1_" gradientUnits="userSpaceOnUse" x1="618" y1="16.7598" x2="618" y2="198.772">
		<stop  offset="0" style="stop-color:#B7282C"/>
		<stop  offset="1" style="stop-color:#7A2B59"/>
	</linearGradient>
	<rect x="22" y="64" class="st0" width="1192" height="453"/>
	<linearGradient id="SVGID_2_" gradientUnits="userSpaceOnUse" x1="217.5" y1="79.0075" x2="217.5" y2="125.2137">
		<stop  offset="0" style="stop-color:#078B43"/>
		<stop  offset="1" style="stop-color:#E65959"/>
	</linearGradient>
	<rect x="21" y="91" class="st1" width="393" height="115"/>
	<linearGradient id="SVGID_3_" gradientUnits="userSpaceOnUse" x1="217.5" y1="204.8603" x2="217.5" y2="255.4863">
		<stop  offset="0" style="stop-color:#078B43"/>
		<stop  offset="1" style="stop-color:#E65959"/>
	</linearGradient>
	<rect x="21" y="218" class="st2" width="393" height="126"/>
	<linearGradient id="SVGID_4_" gradientUnits="userSpaceOnUse" x1="217.5" y1="339.2104" x2="217.5" y2="403.8991">
		<stop  offset="0" style="stop-color:#078B43"/>
		<stop  offset="1" style="stop-color:#E65959"/>
	</linearGradient>
	<rect x="21" y="356" class="st3" width="393" height="161"/>
	<linearGradient id="SVGID_5_" gradientUnits="userSpaceOnUse" x1="596.5" y1="41.9497" x2="596.5" y2="215.5243">
		<stop  offset="0" style="stop-color:#B7282C"/>
		<stop  offset="1" style="stop-color:#E65959"/>
	</linearGradient>
	<rect x="427" y="87" class="st4" width="339" height="432"/>
	<linearGradient id="SVGID_6_" gradientUnits="userSpaceOnUse" x1="945.5" y1="41.9497" x2="945.5" y2="215.5243">
		<stop  offset="0" style="stop-color:#B7282C"/>
		<stop  offset="1" style="stop-color:#E65959"/>
	</linearGradient>
	<rect x="776" y="87" class="st5" width="339" height="432"/>
	<linearGradient id="SVGID_7_" gradientUnits="userSpaceOnUse" x1="218" y1="86.4972" x2="218" y2="96.1402">
		<stop  offset="0" style="stop-color:#F1F1F1"/>
		<stop  offset="1" style="stop-color:#CBCBCB"/>
	</linearGradient>
	<rect x="21" y="89" class="st6" width="394" height="24"/>
	<linearGradient id="SVGID_8_" gradientUnits="userSpaceOnUse" x1="218" y1="210.6015" x2="218" y2="219.8427">
		<stop  offset="0" style="stop-color:#F1F1F1"/>
		<stop  offset="1" style="stop-color:#CBCBCB"/>
	</linearGradient>
	<rect x="21" y="213" class="st7" width="394" height="23"/>
	<linearGradient id="SVGID_9_" gradientUnits="userSpaceOnUse" x1="218" y1="347.4972" x2="218" y2="357.1402">
		<stop  offset="0" style="stop-color:#F1F1F1"/>
		<stop  offset="1" style="stop-color:#CBCBCB"/>
	</linearGradient>
	<rect x="21" y="350" class="st8" width="394" height="24"/>
	<linearGradient id="SVGID_10_" gradientUnits="userSpaceOnUse" x1="594.5" y1="85.4972" x2="594.5" y2="95.1402">
		<stop  offset="0" style="stop-color:#F1F1F1"/>
		<stop  offset="1" style="stop-color:#CBCBCB"/>
	</linearGradient>
	<rect x="422" y="88" class="st9" width="345" height="24"/>
	<linearGradient id="SVGID_11_" gradientUnits="userSpaceOnUse" x1="945.5" y1="85.4972" x2="945.5" y2="95.1402">
		<stop  offset="0" style="stop-color:#F1F1F1"/>
		<stop  offset="1" style="stop-color:#CBCBCB"/>
	</linearGradient>
	<rect x="774" y="88" class="st10" width="343" height="24"/>
	
		<linearGradient id="SVGID_12_" gradientUnits="userSpaceOnUse" x1="564.9294" y1="-173.7527" x2="565.2546" y2="-202.5349" gradientTransform="matrix(1 0 0 -1 0 -119)">
		<stop  offset="0" style="stop-color:#F1F1F1"/>
		<stop  offset="1" style="stop-color:#CBCBCB"/>
	</linearGradient>
	<path class="st11" d="M1128,47c0-2.2-1.8-4-4.1-4H6.1C3.8,43,2,44.8,2,47V75c0,2.2,1.8,4,4.1,4h1117.8c2.3,0,4.1-1.8,4.1-4V47z"/>
	<linearGradient id="SVGID_13_" gradientUnits="userSpaceOnUse" x1="1332.5" y1="-14.2644" x2="1332.5" y2="179.3998">
		<stop  offset="0" style="stop-color:#B7282C"/>
		<stop  offset="1" style="stop-color:#E65959"/>
	</linearGradient>
	<rect x="1128" y="36" class="st12" width="409" height="482"/>
	
		<linearGradient id="SVGID_14_" gradientUnits="userSpaceOnUse" x1="1328.4406" y1="-241.7427" x2="1328.7142" y2="-265.9638" gradientTransform="matrix(1 0 0 -1 0 -229)">
		<stop  offset="0" style="stop-color:#F1F1F1"/>
		<stop  offset="1" style="stop-color:#CBCBCB"/>
	</linearGradient>
	<path class="st13" d="M1548,4c0-2.2-0.7-4-1.6-4h-435.8c-0.9,0-1.6,1.8-1.6,4V32c0,2.2,0.7,4,1.6,4h435.8c0.9,0,1.6-1.8,1.6-4V4z"
		/>
</g>
</svg>
