<?xml version="1.0" encoding="utf-8"?>
<!-- Generator: Adobe Illustrator 22.1.0, SVG Export Plug-In . SVG Version: 6.00 Build 0)  -->
<svg version="1.1" id="contents" xmlns="http://www.w3.org/2000/svg" xmlns:xlink="http://www.w3.org/1999/xlink" x="0px" y="0px"
	 viewBox="0 0 512 361.5" style="enable-background:new 0 0 512 361.5;" xml:space="preserve">
<style type="text/css">
	.st0{fill:#FFFFFF;}
</style>
<path class="st0" d="M412.3,23.2c0,0.1,0,0.2,0,0.2C369.4,9,315.9,0.3,257.9,0v0c0,0-0.1,0-0.1,0c0,0-0.1,0-0.1,0v0
	C204-0.2,154.1,6.8,112.9,19c-0.3,0.1-0.6,0.2-1,0.3c-0.8,0.2-1.6,0.5-2.3,0.7c-0.8,0.2-1.6,0.5-2.4,0.8c-0.4,0.1-0.9,0.3-1.3,0.4
	c-1.4,0.5-2.8,0.9-4.2,1.4c0,0-0.1,0-0.1,0C39.9,43,0,75.4,0,111.9c0,137.8,114.6,249.6,255.9,249.6c0,0,0,0,0.1,0c0,0,0,0,0.1,0
	c141.3,0,255.9-111.7,255.9-249.6C512,75.8,472.9,43.7,412.3,23.2z M256.1,332.6L256.1,332.6C256,332.6,256,332.6,256.1,332.6
	c-0.1,0-0.1,0-0.2,0v0c-104.6,0-192.9-69.1-219.2-162.8c44.8,32.4,126.2,54.1,219.2,54.2v0c0,0,0.1,0,0.1,0c0,0,0.1,0,0.1,0v0
	c93,0,174.3-21.7,219.2-54.2C449,263.4,360.7,332.5,256.1,332.6z M425.4,164.6C380.6,184.2,320.4,195,256,195
	c-64.5,0-124.6-10.8-169.4-30.4C51,149,28.9,128.8,28.9,111.9c0-17,22.1-37.2,57.7-52.7c0.6-0.3,1.2-0.5,1.8-0.8l0,0
	c2.5-1.1,5.1-2.1,7.7-3.2c0.5-0.2,1-0.4,1.5-0.6c1-0.4,1.9-0.7,2.9-1.1c4-1.5,8-2.9,12.2-4.3c0,0,0,0,0,0
	c41.2-13.5,91.7-20.6,145-20.4c64.5,0.3,124.6,11.4,169.3,31.2c0.9,0.4,1.8,0.8,2.7,1.2l0-0.2c33,15.3,53.4,34.5,53.4,50.8
	C483.1,128.8,461,149,425.4,164.6z"/>
</svg>
