<?xml version="1.0" encoding="utf-8"?>
<!-- Generator: Adobe Illustrator 22.1.0, SVG Export Plug-In . SVG Version: 6.00 Build 0)  -->
<svg version="1.1" id="contents" xmlns="http://www.w3.org/2000/svg" xmlns:xlink="http://www.w3.org/1999/xlink" x="0px" y="0px"
	 viewBox="0 0 282.7 108.7" style="enable-background:new 0 0 282.7 108.7;" xml:space="preserve">
<style type="text/css">
	.st0{fill:#FFFFFF;}
</style>
<g>
	<path class="st0" d="M141.4,0c0,0-32,41.1-32,71.1c0,30,23.3,37.6,32,37.6c8.7,0,32-7.6,32-37.6C173.4,41.1,141.4,0,141.4,0z
		 M141.4,97.3c-3.4,0-12.7-3-12.7-14.9s12.7-28.1,12.7-28.1S154,70.6,154,82.5S144.8,97.3,141.4,97.3z"/>
	<path class="st0" d="M32,0C32,0,0,41.1,0,71.1c0,30,23.3,37.6,32,37.6s32-7.6,32-37.6C64,41.1,32,0,32,0z M32,97.3
		c-3.4,0-12.7-3-12.7-14.9S32,54.3,32,54.3s12.7,16.2,12.7,28.1S35.5,97.3,32,97.3z"/>
	<path class="st0" d="M250.7,0c0,0-32,41.1-32,71.1c0,30,23.3,37.6,32,37.6c8.7,0,32-7.6,32-37.6C282.7,41.1,250.7,0,250.7,0z
		 M250.7,97.3c-3.4,0-12.7-3-12.7-14.9s12.7-28.1,12.7-28.1s12.7,16.2,12.7,28.1S254.2,97.3,250.7,97.3z"/>
</g>
</svg>
