<?xml version="1.0" encoding="utf-8"?>
<!-- Generator: Adobe Illustrator 22.1.0, SVG Export Plug-In . SVG Version: 6.00 Build 0)  -->
<svg version="1.1" id="contents" xmlns="http://www.w3.org/2000/svg" xmlns:xlink="http://www.w3.org/1999/xlink" x="0px" y="0px"
	 viewBox="0 0 565 269.3" style="enable-background:new 0 0 565 269.3;" xml:space="preserve">
<style type="text/css">
	.st0{fill-rule:evenodd;clip-rule:evenodd;fill:#FFFFFF;}
</style>
<g>
	<path class="st0" d="M17,0C7.7,0,0,7.7,0,17v235.3c0,9.4,7.7,17,17,17h531c9.3,0,17-7.6,17-17V17c0-9.4-7.7-17-17-17 M61.8,225.6
		c0,4.4-3.6,8-8,8h-11c-4.4,0-8-3.6-8-8v-182c0-4.4,3.6-8,8-8h11c4.4,0,8,3.6,8,8V225.6z"/>
</g>
</svg>
