<?xml version="1.0" encoding="utf-8"?>
<!-- Generator: Adobe Illustrator 22.1.0, SVG Export Plug-In . SVG Version: 6.00 Build 0)  -->
<svg version="1.1" id="contents" xmlns="http://www.w3.org/2000/svg" xmlns:xlink="http://www.w3.org/1999/xlink" x="0px" y="0px"
	 viewBox="0 0 417.5 315.6" style="enable-background:new 0 0 417.5 315.6;" xml:space="preserve">
<style type="text/css">
	.st0{fill-rule:evenodd;clip-rule:evenodd;fill:#FFFFFF;}
</style>
<g>
	<path class="st0" d="M397.3,0.6L258.6,82.5c-2,1.2-2.7,3.8-1.5,5.9l0.9,1.5l-18,10.6l-18.2,10.8L170,141.7
		c-41.6,24.5-80.8,53.7-110.6,82.1C25.1,256.5,4.5,287.1,0,312.3c-0.2,1.1,0.3,2.2,1.2,2.8c0.9,0.6,2.1,0.7,3.1,0.1l268.8-158.7
		c1.4-0.8,1.8-2.6,1-3.9l-19.5-33l15.6-9.2l0.7,1.3c1.2,2,3.8,2.7,5.9,1.5l138.7-81.9c2-1.2,2.7-3.8,1.5-5.9L403.1,2.1
		C401.9,0.1,399.3-0.6,397.3,0.6z M263.9,149.8c0.8,1.3,0.3,3.1-1,3.9L22,295.9c-1.3,0.8-3.1,0.3-3.9-1l-0.5-0.9
		c-0.8-1.3-0.3-3.1,1-3.9L259.6,148c1.3-0.8,3.1-0.3,3.9,1L263.9,149.8z"/>
</g>
</svg>
