<?xml version="1.0" encoding="utf-8"?>
<!-- Generator: Adobe Illustrator 22.1.0, SVG Export Plug-In . SVG Version: 6.00 Build 0)  -->
<svg version="1.1" id="contents" xmlns="http://www.w3.org/2000/svg" xmlns:xlink="http://www.w3.org/1999/xlink" x="0px" y="0px"
	 viewBox="0 0 433.5 364.2" style="enable-background:new 0 0 433.5 364.2;" xml:space="preserve">
<style type="text/css">
	.st0{fill:#FFFFFF;}
</style>
<g>
	<g>
		<path class="st0" d="M230.2,130.2C180.5,126.6,116.3,108.9,52,158C-8.4,204-13.9,271.1,23.5,320.1c37.4,49,103.6,61.4,163.9,15.4
			c64.3-49.1,64.2-115.6,73.9-164.5L230.2,130.2z M23.1,241.2c3.6-24.5,18.3-47.2,42.4-65.5c39.1-29.9,79-31.2,115.7-28.1
			c-17.4,3.9-39.1,10.5-66.9,22.4c-37.2,16-65.9,43.8-83.2,80.5c-3,6.3-5.4,12.5-7.3,18.1C22,259.5,21.8,250.3,23.1,241.2z
			 M40.1,292.9c4.9-23,22.7-76.5,83-102.5c38.9-16.7,65-22.3,83.7-24.8L40.1,292.9z M52.6,311.3l169-129
			c-7.2,17.6-19.4,41.8-46.8,76.1c-21.9,27.5-50.6,44.6-85.2,50.8C74.3,312,61,311.9,52.6,311.3z M174,317.8
			c-24.1,18.4-49.8,26.5-74.4,23.6c-9.1-1.1-18-3.8-26.2-7.9c6-0.4,12.5-1.1,19.4-2.3c39.9-7,74.3-27.4,99.6-59
			c18.9-23.7,31-42.9,39.3-58.6C224.9,249.9,213.1,288,174,317.8z"/>
		<path class="st0" d="M245.6,118.1l31.5,41.2c0,0,144-103.4,144-103.4c13.8-10.5,16.5-30.1,6.1-43.7c-10.4-13.6-30-16.2-43.8-5.7
			C383.3,6.5,245.6,118.1,245.6,118.1z"/>
	</g>
</g>
</svg>
