<?xml version="1.0" encoding="utf-8"?>
<!-- Generator: Adobe Illustrator 22.1.0, SVG Export Plug-In . SVG Version: 6.00 Build 0)  -->
<svg version="1.1" id="レイヤー_1" xmlns="http://www.w3.org/2000/svg" xmlns:xlink="http://www.w3.org/1999/xlink" x="0px"
	 y="0px" viewBox="0 0 425 535" style="enable-background:new 0 0 425 535;" xml:space="preserve">
<style type="text/css">
	.st0{fill:#FFFFFF;}
</style>
<path class="st0" d="M374.4,270.6c-0.5-0.1-1-0.4-1.6-0.8c-4.8-37.1-9.4-74.8-13.3-107.5c-1.1-9-2.1-17.7-3.1-26
	c6.7,2.1,12.1,3,14.3,1.2c37.6-30.1,43.5-21,54.4-15.6c-12.4-28.3-46.9,8.1-54.4,10.3c-2.6,0.8-8.4-0.8-15.2-3.3
	c-4-33.1-7.3-58.4-9.6-70.3C340,28.6,320.7,5.6,298,1.6c-21.9-3.9-44.1,10.1-63.2,39.1c-6.4-2.7-12.2-4.2-16.8-4.2
	c-5.6,0-11,1.3-16.3,3.3C182,11,157.6-3.3,134.1,0.7C110.3,4.7,91,27,83.8,58.7C81,71.1,78.2,92.8,75.3,120
	c-7.4,2.2-13,3.6-14.3,3.3c-3.9-0.8-57.9-38.3-58.8-4.5c8.7-22.2,51.5,6.2,56.8,10.7c1.5,1.3,7.6,0.2,15.4-1.8
	c-2.1,19.7-4.2,41.8-6.4,65.2c-2,20.9-4.1,42.9-6.4,64.8c-4.9,5.8-9.2,9.9-12,10.7C36.2,272.1-19.9,308,7.4,329
	c-7.5-15.7,1-26.5,52-58.4c0.2-0.2,0.6-0.5,1-0.9C51.6,353.9,41,434.3,27,450.4c-0.8,0.9-0.7,2.4,0.2,3.2c0.4,0.4,0.9,0.6,1.5,0.6
	c0.6,0,1.3-0.3,1.7-0.8c15.2-17.5,26-100.4,35.2-189.5c13.6-16.8,42.8-58.9,44.6-61.3c1.1-1.5,6.4-1,12.3,0.1
	c-3.1,27.8-3.6,58.6-2,89.8c-12.7,10.5-32.1,28-33.3,38c-1.5,12.6-14.2,97.3-15,108.6c-12,19.5-58.5,52.5-48.7,90
	c6.8-24.8,11.3-51,59.2-87.8c11.3-30.7,13.5-93,16.5-108c1.9-9.4,13.5-16.1,22.6-20.2c4.3,52.9,14.5,105.2,28.4,144.1
	c-7.5,7.3-20.4,18.9-24.3,20.4c7.5,0,21.6-1.6,31.2-3c15.6,35.2,34.8,54,55.4,42.3c0-0.1-0.1-0.2,0-0.2
	c11.7-11.7,19.6-26.6,25.6-41.9c6-15.4,10.1-31.5,13.3-47.7c6.4-32.5,8.8-65.6,9.5-98.6c0.6-33.1-0.6-66.2-4-99
	c-1.7-16.4-4-32.8-7.2-49c-1.6-8.1-3.6-16.1-5.9-24.1c-2.5-7.7-5.2-15.6-10.3-21.8c-6,0.2-12.1,0-18.1-0.2
	c-10.3-1-20.5-2.5-30.5-5.3c-9.9-2.9-20.1-6.5-27.8-13.6c-0.1-0.1-0.1-0.2,0-0.3c0.1-0.1,0.2-0.1,0.3,0c8.5,5.6,18.5,8.3,28.3,10.5
	c9.9,2.1,20,3.5,30.1,4.2c10.1,0.8,20.3,1,30.4,0.3c10-0.9,20.5-2,29-7.5c0.1-0.1,0.2,0,0.3,0.1c0.1,0.1,0,0.2,0,0.3
	c-8,7.1-19,9.1-29.1,10.6c-4.1,0.5-8.2,0.8-12.3,0.9c5.3,6.2,8.3,13.9,11.1,21.4c2.7,7.9,5,15.9,6.9,24c3.7,16.2,6.3,32.7,8.4,49.1
	c4.1,33,5.3,66.3,5,99.5c-1.1,33.2-3.5,66.5-10.6,99.2c-3.6,16.3-8.1,32.4-14.5,47.9c-6.6,15.2-15.2,30-27.5,41.3
	c22.3,10.1,41.3-7.7,56.4-41c10.2,2.4,30.1,5.6,35.8,6.3c-2.5-2.3-19.6-14.1-29.5-21.9c14.1-38.3,24-90.5,28.6-143.5
	c11.3,7.2,28.1,17.1,30.3,21.1c3,5.3,14.2,78,12,111c36,30,49.5,66.7,45.8,86.2c18-3.8,0-58.5-35.3-87.7c0-42.4-3.8-96.8-12.8-113.2
	c-4.2-7.8-25.1-27.8-38.4-41.2c1.8-31.1,1.8-61.6-0.3-89c7.4-2.9,14.9-5.3,16.2-3.5c2.2,3,36.7,68.8,42.6,72.6
	c1.5,1,2.9,1.9,4.4,2.8c12.6,96,24.5,166.2,36.2,175.6c0.4,0.3,0.9,0.5,1.4,0.5c0.7,0,1.3-0.3,1.7-0.8c0.8-1,0.6-2.4-0.3-3.2
	c-10.7-8.6-23.1-86.2-34.1-169c42.3,27.3,46.3,37,39.3,51.7C450.7,317,387.8,274.4,374.4,270.6z M124.2,189.1
	c-4-0.9-8.1-1.5-11.7-1.5c-3,0-27.3,39.9-45.7,63.7c1.9-19.4,3.8-38.9,5.7-58c2.3-24.1,4.5-46.9,6.6-66.9
	c19.6-5.5,46.5-15.2,48.5-12.9c2.2,2.4,9.9,8.2,14.5,12.8C133.7,142.9,127.8,164.5,124.2,189.1z M149.2,114.3
	c-0.3,0.4-0.5,0.8-0.8,1.2c-6.7-7-18.7-13.6-27.2-10.4c-6.1,2.2-25.9,9-41.2,13.6c2.8-26.1,5.6-47,8.3-58.9
	C95,29.8,112.9,8.9,134.9,5.1c21.5-3.7,44,9.7,62.6,36.5C170.7,54.7,149.8,90.2,149.2,114.3z M284.6,114.3
	c7.9-31.6-21.2-59.8-45.7-71.7c17.9-27,38.5-40,58.3-36.5c20.9,3.7,38.7,25.3,44.3,53.6c2.2,11.5,5.4,35.8,9.3,67.6
	c-12.2-4.9-26.2-11.8-31.8-14.4c-8.2-3.8-20.1,0.9-32.2,5.2C286,116.7,285.3,115.4,284.6,114.3z M325.8,185.3
	c-1.9,1.9-12.2,3.9-21.1,6c-2.4-24-6.6-45-12.5-61c6-3.4,12.3-6.1,17.7-8.4c5.3-2.2,25.8,7.4,41.7,12.9c1.1,8.9,2.2,18.3,3.4,28.1
	c4.3,35.7,8.5,70,12.6,101.7C352.3,244.5,328.3,182.8,325.8,185.3z"/>
</svg>
